<svg width="143" height="63" viewBox="0 0 143 63" fill="none" xmlns="http://www.w3.org/2000/svg">
<g id="Group 23">
<g id="Group">
<path id="Vector" d="M140.29 19.6165C140.089 19.3014 139.876 18.9959 139.657 18.6951C140.229 17.6795 140.882 16.7055 141.608 15.7812C140.101 15.7753 138.594 15.7717 137.087 15.7703C136.652 15.3521 136.203 14.9465 135.74 14.5536C136.912 13.9995 138.062 13.3993 139.183 12.7417C141.581 11.3341 141.455 7.25944 138.341 6.68161C133.705 5.82098 129.025 5.68145 124.322 5.69265C124.648 5.12151 124.817 4.48281 124.814 3.83458C124.832 3.69781 124.841 3.56019 124.841 3.42242C124.841 1.75311 123.176 -0.204438 121.222 0.0172541L43.341 8.86085C43.2421 8.84829 43.1429 8.83709 43.0441 8.82453C43.0801 8.8157 43.1086 8.8028 43.1458 8.79601C44.5167 8.54885 45.8876 8.30679 47.2584 8.06982C50.3718 7.33684 53.5046 6.6317 56.6197 5.86987C42.2486 6.88837 27.8205 6.4039 13.4371 5.00551C12.3476 5.0235 11.2585 5.0364 10.169 5.03946C7.15189 6.24277 4.21436 7.61569 1.37232 9.15078C1.58877 9.92959 1.79116 10.7125 1.97118 11.4984C2.0473 11.8304 2.11115 12.1601 2.16923 12.4881C2.51604 12.4994 2.86249 12.5107 3.20857 12.522C2.99392 13.3436 2.73057 14.1516 2.55091 14.9847C2.50546 15.1952 2.47371 15.4064 2.44701 15.6179C2.44485 16.1172 2.41984 16.6128 2.37198 17.1049C2.39038 18.7976 2.66058 20.4972 2.24715 22.1376C1.99485 24.1989 1.37607 26.2056 0.416674 28.0738C0.437237 30.3144 0.649002 32.5551 0.806292 34.7958C1.68303 37.83 1.66369 41.0317 0.750374 44.0563C0.537972 44.7411 0.287502 45.4149 0 46.075L0.068544 47.5297C0.186151 50.0797 0.0782842 52.8395 1.333 55.1763C1.76287 55.9967 2.36811 56.7249 3.11081 57.3151L1.87738 57.5117C1.87954 58.8591 1.89686 60.2073 1.94412 61.5517C4.26848 61.3697 6.59788 61.2502 8.92296 61.2146C15.5382 61.1127 21.9463 62.083 28.4255 63L69.0453 59.1406C63.6339 60.1987 58.2173 61.2311 52.7953 62.2378C56.7373 61.9873 60.6772 61.8494 64.6545 61.7422C70.8022 61.5761 76.9127 60.9005 83.0567 60.687C86.0104 60.5639 88.9697 60.64 91.9118 60.9148C95.2936 61.2543 98.5703 61.8885 101.889 62.4133C105.767 62.6848 109.664 62.5849 113.52 62.1153C121.368 61.0832 129.2 59.9622 137.053 58.9556L137.687 57.5422C137.934 57.3166 138.148 57.0612 138.323 56.7828C141.05 52.4735 141.154 47.7691 141.146 43.0209C141.29 42.6674 141.434 42.314 141.569 41.9582C141.513 41.8078 141.454 41.6598 141.401 41.5081C141.309 41.2439 141.224 40.9771 141.144 40.7075C141.157 37.9627 141.267 35.2222 141.96 32.5534C143.145 27.9899 142.912 23.7285 140.29 19.6165ZM28.5009 13.0543C28.9291 13.0588 29.3573 13.0604 29.7855 13.0638C29.426 13.5374 29.1652 14.0709 29.0171 14.6361C28.7253 14.78 28.4331 14.9236 28.1481 15.0794C28.3224 14.4142 28.4403 13.7371 28.5009 13.0543ZM9.8566 14.926C10.0543 14.2029 10.2058 13.4702 10.3292 12.7332C11.6189 12.7671 12.909 12.7905 14.1987 12.8197C13.9231 13.0866 13.6482 13.354 13.374 13.622L9.62211 17.2723C9.51614 17.3757 9.4163 17.4845 9.32304 17.5982C9.29959 16.6635 9.6084 15.8355 9.8566 14.926ZM9.35335 22.3138C9.38822 22.1201 9.4184 21.9232 9.4439 21.7231C9.50955 21.8 9.57822 21.8746 9.64989 21.9468C9.55176 22.0697 9.45075 22.1906 9.35335 22.3138ZM13.1561 40.7581C12.7066 41.3559 12.5252 42.0962 12.651 42.8189L9.72889 43.1685L13.4241 40.3962C13.3347 40.5174 13.2437 40.6379 13.1561 40.7581ZM24.5899 53.8889C25.0916 53.6549 25.5631 53.3675 25.9951 53.0323C26.5569 53.29 27.1794 53.4084 27.8035 53.3762L24.5899 53.8889ZM27.6022 41.0307C27.9298 40.7065 28.2538 40.3792 28.5802 40.0536C29.0057 40.2054 29.4568 40.2831 29.9118 40.2831C30.3938 40.2862 30.8754 40.2862 31.3574 40.2879C31.269 40.3962 31.1824 40.5055 31.094 40.6135L27.6022 41.0307ZM28.6383 53.2432C29.1849 53.0933 29.6811 52.8134 30.0792 52.4304C30.4014 52.1181 30.7286 51.8101 31.0532 51.4998L35.431 51.2544C35.4117 51.5542 35.4359 51.855 35.5032 52.1486L28.6383 53.2432ZM70.7592 42.641L68.7513 42.7537L70.8797 42.4997C70.839 42.5459 70.7989 42.5928 70.7592 42.641ZM88.3256 50.6796L85.1578 50.9807L85.2122 50.9128L88.3288 50.4158C88.3248 50.5041 88.3223 50.592 88.3256 50.6786V50.6796ZM104.191 48.5591C103.872 48.5652 103.553 48.5683 103.234 48.5751C102.581 48.5791 101.942 48.7563 101.391 49.0863C100.467 48.9563 99.5538 48.8453 98.645 48.7713L104.504 47.837C104.372 48.0662 104.268 48.3079 104.191 48.5581V48.5591ZM105.245 40.7051L104.428 40.751C104.666 40.0398 104.682 39.2795 104.476 38.5598C104.515 38.5076 104.553 38.4546 104.592 38.402L105.485 38.2923C105.143 39.0545 105.06 39.8972 105.245 40.7058V40.7051ZM116.611 12.3916C116.834 12.3893 117.057 12.3859 117.28 12.3838C117.173 12.4725 117.072 12.5679 116.979 12.6693C116.748 12.9226 116.521 13.1786 116.293 13.4319L116.232 13.4417C116.41 13.11 116.537 12.7566 116.611 12.3916ZM112.278 56.427C113.924 56.0092 115.568 55.5828 117.211 55.1477C118.324 55.1634 119.437 55.184 120.551 55.2095C117.794 55.6183 115.036 56.0241 112.278 56.427ZM120.186 47.6781C120.639 46.6976 121.064 45.7073 121.462 44.7071C121.478 45.4062 121.495 46.1052 121.518 46.8042C121.541 47.4172 121.754 48.0105 122.131 48.5109C121.613 48.0177 120.921 47.7212 120.186 47.6781Z" fill="#F59A39"/>
</g>
<g id="Group_2">
<path id="Vector_2" d="M78.8291 42.3631C78.4725 42.3631 78.0872 42.3918 77.6732 42.4493C77.2591 42.5069 76.9888 42.5471 76.8623 42.5701L76.9658 41.7765C77.4949 41.673 77.8514 41.5209 78.0355 41.3203C78.2195 41.1183 78.3115 40.7758 78.3115 40.2928L78.3288 33.0467C78.3288 32.6787 78.2853 32.4314 78.1984 32.3048C78.1128 32.1783 77.9435 32.1151 77.6904 32.1151C77.5754 32.1151 77.4604 32.1208 77.3454 32.1323C77.2304 32.1438 77.1498 32.1496 77.1038 32.1496L77.0693 32.0806L77.1901 31.3215C77.3281 31.333 77.5869 31.3445 77.9665 31.356C78.346 31.3675 78.7256 31.3732 79.1051 31.3732C79.4962 31.3732 79.8956 31.3649 80.3032 31.3483C80.7122 31.3304 80.9914 31.3157 81.1409 31.3042C82.2336 31.3042 83.0732 31.5317 83.6598 31.9866C84.2464 32.4403 84.5397 33.087 84.5397 33.9266C84.5397 34.5017 84.364 35.0192 84.0125 35.4793C83.6624 35.9394 83.171 36.3074 82.5384 36.5835C83.378 36.7675 84.0336 37.0896 84.5052 37.5496C84.9768 38.0097 85.2125 38.5618 85.2125 39.2059C85.2125 39.7925 85.0253 40.342 84.6509 40.8544C84.2777 41.3656 83.7806 41.7739 83.1595 42.0794C82.5384 42.3835 81.8713 42.5356 81.1582 42.5356C80.8476 42.5356 80.4911 42.5069 80.0885 42.4493C79.4329 42.3918 79.0131 42.3631 78.8291 42.3631ZM79.64 36.3074C79.8125 36.3189 80.1026 36.3419 80.5103 36.3764C80.9192 36.411 81.256 36.434 81.5205 36.4455C81.5205 36.48 81.67 36.4199 81.9691 36.2653C82.2681 36.1094 82.5384 35.8678 82.7799 35.5407C83.0215 35.2122 83.1422 34.772 83.1422 34.2199C83.1422 33.4838 82.8949 32.9374 82.4004 32.5809C81.9058 32.2243 81.1409 32.0461 80.1058 32.0461C79.9908 32.0461 79.9128 32.0723 79.8719 32.1247C79.8323 32.1758 79.8067 32.2818 79.7952 32.4429C79.7262 33.547 79.6745 34.8352 79.64 36.3074ZM79.6055 37.2218L79.5364 40.448C79.5364 40.8851 79.686 41.1957 79.985 41.3797C80.2841 41.5637 80.7901 41.6557 81.5032 41.6557C82.1933 41.6557 82.7365 41.4634 83.1326 41.0787C83.5301 40.6928 83.7288 40.172 83.7288 39.5164C83.7288 38.8953 83.5333 38.3867 83.1422 37.9905C82.7512 37.5931 82.1703 37.3253 81.3997 37.1873L79.6055 37.2218Z" fill="black"/>
<path id="Vector_3" d="M98.3076 41.7421L98.3766 41.8111L98.2731 42.3977L96.8411 42.6047C96.5421 42.6047 96.2315 42.4609 95.9095 42.1734C95.5874 41.8858 95.2769 41.4833 94.9778 40.9657L92.735 37.2047H91.3203L91.234 40.4309C91.2225 40.8909 91.2685 41.2015 91.3721 41.3625C91.4756 41.5235 91.6826 41.6041 91.9932 41.6041C92.1657 41.6041 92.3267 41.5983 92.4762 41.5868C92.6257 41.5753 92.7235 41.5638 92.7695 41.5523L92.804 41.6213L92.6487 42.4149C92.4992 42.4034 92.2142 42.3919 91.7938 42.3804C91.3746 42.3689 90.9465 42.3632 90.5094 42.3632L88.5254 42.3804L88.6979 41.6041C89.066 41.5695 89.3388 41.512 89.5165 41.4315C89.6954 41.351 89.8193 41.2277 89.8883 41.0616C89.9574 40.8941 89.9976 40.6379 90.0091 40.2929L90.0264 33.0468C90.0264 32.6787 89.9829 32.4314 89.896 32.3049C89.8104 32.1784 89.6353 32.1152 89.3708 32.1152C89.2557 32.1152 89.1407 32.1209 89.0257 32.1324C88.9107 32.1439 88.8302 32.1497 88.7842 32.1497L88.7497 32.0806L88.8704 31.3215C89.0085 31.333 89.2672 31.3445 89.6468 31.356C90.0264 31.3675 90.4059 31.3733 90.7855 31.3733C91.1075 31.3733 91.4666 31.3535 91.8628 31.3139C92.2602 31.273 92.5222 31.241 92.6487 31.218L92.5797 31.9944C92.1427 32.0634 91.8462 32.1701 91.6903 32.3145C91.5356 32.4576 91.4526 32.696 91.4411 33.0295L91.3548 36.273L92.7523 36.3765L94.3395 33.7196C94.8916 32.7995 95.406 32.1529 95.8826 31.7797C96.3606 31.4052 96.9619 31.218 97.6865 31.218C97.8245 31.333 97.9248 31.5056 97.9875 31.7356C98.0514 31.9656 98.0833 32.2187 98.0833 32.4947C98.0833 32.6902 98.0776 32.8283 98.066 32.9088L97.9108 33.0295C97.5427 32.8685 97.1919 32.788 96.8584 32.788C96.4788 32.788 96.1478 32.903 95.8654 33.1331C95.5842 33.3631 95.3114 33.7024 95.0469 34.151L93.7012 36.3765L96.1683 40.2929C96.4788 40.7759 96.8034 41.1382 97.1421 41.3798C97.482 41.6213 97.8705 41.7421 98.3076 41.7421Z" fill="black"/>
<path id="Vector_4" d="M109.659 31.3044L109.728 31.4251L109.625 32.0635C109.326 32.3165 109.087 32.5638 108.908 32.8053C108.73 33.0469 108.527 33.4264 108.297 33.944L105.588 39.9651C105.277 40.6552 104.975 41.1786 104.681 41.5351C104.389 41.8917 104.038 42.1447 103.629 42.2942C103.221 42.4438 102.678 42.5128 101.999 42.5013L101.775 42.3805C101.637 41.9089 101.568 41.4891 101.568 41.1211C101.568 41.029 101.58 40.8795 101.603 40.6725L101.775 40.5517C102.454 40.7358 102.971 40.8278 103.328 40.8278C103.719 40.8278 104.029 40.7358 104.259 40.5517C104.489 40.3677 104.696 40.0687 104.881 39.6546L105.001 39.3786L101.93 34.0475C101.551 33.3919 101.263 32.9434 101.068 32.7018C100.872 32.4603 100.613 32.2475 100.291 32.0635L100.257 31.9945L100.343 31.3216C100.999 31.3561 101.447 31.3734 101.689 31.3734C101.942 31.3734 102.776 31.3274 104.19 31.2354L104.225 31.3561L104.139 31.96C103.667 32.0175 103.325 32.098 103.111 32.2015C102.899 32.305 102.793 32.4603 102.793 32.6673C102.793 32.9088 102.954 33.3172 103.276 33.8922L105.571 37.9293H105.657L107.589 33.6507C107.773 33.2251 107.865 32.9146 107.865 32.7191C107.865 32.4775 107.753 32.3108 107.528 32.2187C107.304 32.1267 106.934 32.075 106.416 32.0635L106.381 31.9945L106.485 31.3044L107.813 31.3734C108.538 31.3734 109.153 31.3504 109.659 31.3044Z" fill="black"/>
<path id="Vector_5" d="M116.613 42.5702C115.577 42.5702 114.669 42.3517 113.887 41.9146C113.105 41.4775 112.503 40.8596 112.083 40.0609C111.664 39.2609 111.454 38.3203 111.454 37.2392C111.454 36.089 111.713 35.0513 112.23 34.126C112.748 33.1995 113.464 32.4749 114.377 31.9522C115.292 31.4282 116.325 31.1663 117.475 31.1663C117.901 31.1663 118.335 31.1982 118.777 31.2621C119.22 31.3247 119.594 31.388 119.898 31.4519C120.204 31.5145 120.397 31.5573 120.477 31.5803L120.546 31.6838C120.523 31.7528 120.485 31.9196 120.433 32.1842C120.382 32.4487 120.324 32.7937 120.261 33.2193C120.198 33.6449 120.149 34.0934 120.115 34.565L119.287 34.634C119.298 34.5765 119.31 34.4704 119.321 34.3158C119.333 34.1599 119.339 33.9842 119.339 33.7886C119.339 32.719 118.493 32.1842 116.802 32.1842C116.043 32.1842 115.376 32.3682 114.801 32.7362C114.226 33.1043 113.783 33.6251 113.473 34.2986C113.162 34.9708 113.007 35.7612 113.007 36.6698C113.007 37.6705 113.17 38.5504 113.498 39.3095C113.826 40.0686 114.289 40.6584 114.887 41.0788C115.485 41.498 116.176 41.7076 116.958 41.7076C117.74 41.7076 118.369 41.4865 118.846 41.0443C119.324 40.6008 119.672 39.9133 119.891 38.9817L120.719 38.9127C120.684 39.0852 120.609 39.4679 120.494 40.0609C120.379 40.6526 120.299 41.2072 120.253 41.7248L120.149 41.8801C120.149 41.8916 119.974 41.958 119.622 42.0795C119.272 42.1996 118.835 42.3114 118.311 42.4149C117.788 42.5184 117.222 42.5702 116.613 42.5702Z" fill="black"/>
<path id="Vector_6" d="M132.071 39.3957L132.123 39.482C131.927 40.4136 131.772 41.3798 131.657 42.3804L131.57 42.4839C129.155 42.4034 127.413 42.3632 126.343 42.3632C125.492 42.3632 124.692 42.4207 123.945 42.5357L124.048 41.7421C124.566 41.6731 124.919 41.5382 125.108 41.3376C125.299 41.1357 125.394 40.7874 125.394 40.2929L125.411 33.0468C125.411 32.6787 125.368 32.4314 125.281 32.3049C125.195 32.1784 125.026 32.1151 124.773 32.1151L124.186 32.1497L124.152 32.0806L124.273 31.3215C125.446 31.356 126.245 31.3733 126.671 31.3733C128.039 31.3733 129.103 31.3592 129.862 31.3311C130.622 31.3017 131.283 31.2468 131.846 31.1663L131.898 31.2698C131.691 32.1784 131.559 33.1331 131.501 34.1337L130.673 34.2027L130.708 33.4608C130.708 33.0583 130.656 32.7797 130.553 32.6251C130.449 32.4691 130.225 32.3656 129.88 32.3145C129.535 32.2621 128.931 32.2359 128.068 32.2359C127.666 32.2359 127.39 32.2474 127.24 32.2704C127.091 32.2934 126.993 32.3484 126.947 32.4353C126.901 32.5209 126.872 32.6787 126.861 32.9088L126.722 36.2558L128.499 36.273C128.948 36.273 129.65 36.2098 130.604 36.0832L130.673 36.1695L130.432 37.1874C129.155 37.1529 128.35 37.1356 128.016 37.1356C127.637 37.1356 127.194 37.1759 126.688 37.2564L126.619 40.5516C126.619 40.8852 126.648 41.1184 126.705 41.2513C126.763 41.383 126.88 41.4718 127.058 41.5178C127.237 41.5638 127.545 41.5868 127.982 41.5868C128.948 41.5868 129.635 41.5408 130.043 41.4488C130.452 41.3568 130.742 41.1727 130.915 40.8967C131.087 40.6207 131.22 40.1491 131.312 39.482L132.071 39.3957Z" fill="black"/>
</g>
<g id="Group_3">
<path id="Vector_7" d="M8.34229 43.2372L8.4458 42.4436C8.97488 42.3401 9.33143 42.188 9.51546 41.9873C9.69949 41.7854 9.7915 41.4429 9.7915 40.9599L9.80875 33.7138C9.80875 33.3457 9.76594 33.0984 9.68032 32.9719C9.59341 32.8454 9.42344 32.7821 9.17041 32.7821L8.58382 32.8166L8.54932 32.7476L8.67008 31.9885C8.81961 31.9885 8.93462 31.9943 9.01513 32.0058C9.70524 32.0288 10.2286 32.0403 10.5851 32.0403C11.0682 32.0403 11.6835 31.9885 12.4311 31.885L12.3621 32.6614C12.0171 32.7189 11.773 32.7879 11.6299 32.8684C11.4854 32.9489 11.3877 33.0844 11.3366 33.2748C11.2842 33.4639 11.2465 33.777 11.2235 34.2141L11.1199 37.009L14.0184 37.0263C14.743 37.0263 15.5941 36.9688 16.5718 36.8537L16.589 33.7138C16.589 33.3457 16.5462 33.0984 16.4606 32.9719C16.3737 32.8454 16.2037 32.7821 15.9507 32.7821C15.7896 32.7821 15.5941 32.7936 15.3641 32.8166L15.3296 32.7476L15.4503 31.9885C15.5769 32 15.8069 32.0115 16.1404 32.023C16.474 32.0345 16.8075 32.0403 17.1411 32.0403C17.6932 32.0403 18.3833 31.9885 19.2114 31.885L19.1424 32.6614C18.7168 32.7189 18.4293 32.8141 18.2798 32.947C18.1302 33.0786 18.0497 33.3112 18.0382 33.6448C17.9692 34.9445 17.9117 36.3394 17.8657 37.8295C17.8197 39.3183 17.7967 40.4423 17.7967 41.2014C17.7967 41.6269 17.8484 41.9119 17.952 42.0563C18.0555 42.1995 18.2568 42.271 18.5558 42.271C18.6938 42.271 18.9526 42.2538 19.3322 42.2193L19.3667 42.2883L19.2114 43.0819C19.0504 43.0819 18.9238 43.0762 18.8318 43.0647C18.0727 43.0417 17.4919 43.0302 17.0893 43.0302L15.1053 43.0647L15.2606 42.2883C15.6401 42.2768 15.9193 42.225 16.0983 42.133C16.2759 42.041 16.3992 41.8685 16.4682 41.6154C16.5372 41.3624 16.5718 40.9714 16.5718 40.4423V37.8371L13.9494 37.8199C13.6618 37.8314 13.2593 37.8518 12.7417 37.8812C12.2241 37.9093 11.672 37.9522 11.0854 38.0097L11.0164 41.0979C11.0164 41.5694 11.0682 41.8832 11.1717 42.0391C11.2752 42.1937 11.4765 42.271 11.7755 42.271C11.9136 42.271 12.1724 42.2538 12.5519 42.2193L12.5864 42.2883L12.4311 43.0819C12.3276 43.0704 12.1321 43.0589 11.8446 43.0474C11.557 43.0359 11.2637 43.0302 10.9647 43.0302C10.4356 43.0302 9.86946 43.0532 9.26625 43.0992C8.66178 43.1452 8.35379 43.1912 8.34229 43.2372Z" fill="black"/>
<path id="Vector_8" d="M25.9051 43.2027L25.8533 43.0819L25.9223 42.4091C26.5089 42.3631 26.9115 42.294 27.13 42.202C27.3486 42.11 27.4578 41.9605 27.4578 41.7535C27.4578 41.5234 27.4061 41.2474 27.3025 40.9253L26.7332 39.0448C26.4572 39.0333 25.8591 39.0276 24.9389 39.0276C24.3869 39.0276 23.76 39.0736 23.0584 39.1656L22.4201 40.9598C22.3166 41.2704 22.2648 41.4947 22.2648 41.6327C22.2648 41.8857 22.3453 42.0672 22.5063 42.1771C22.6674 42.2857 22.9319 42.3401 23.3 42.3401H24.2834L24.3179 42.4091L24.2143 43.1509C24.0763 43.1394 23.76 43.1164 23.2655 43.0819C22.7709 43.0474 22.2878 43.0302 21.8162 43.0302C21.3907 43.0302 20.9964 43.0359 20.6335 43.0474C20.2718 43.0589 20.0335 43.0704 19.9185 43.0819L20.0565 42.271C20.3785 42.2365 20.6373 42.1247 20.8328 41.9356C21.0284 41.7452 21.2181 41.4142 21.4022 40.9426L24.7664 32.1265L25.8533 31.8333H25.9914C26.0604 32.1093 26.2354 32.7476 26.5166 33.7483C26.799 34.7489 27.1441 35.9336 27.5518 37.3023C27.9607 38.671 28.355 39.9304 28.7345 41.0806C28.8725 41.5062 29.0566 41.8052 29.2866 41.9777C29.5166 42.1503 29.8847 42.2595 30.3908 42.3055L30.4253 42.3746L30.3045 43.0819C30.1665 43.0819 29.916 43.0736 29.553 43.057C29.1914 43.0391 28.8323 43.0302 28.4757 43.0302C27.9236 43.0302 27.3914 43.0532 26.8789 43.0992C26.3677 43.1452 26.0431 43.1797 25.9051 43.2027ZM23.369 38.3202H24.8872C25.3013 38.3202 25.8361 38.2915 26.4917 38.2339L25.1287 33.7138H25.008L23.369 38.3202Z" fill="black"/>
</g>
<g id="Group_4">
<g id="Group_5">
<g id="Group_6">
<path id="Vector_9" d="M64.4668 37.1284L68.9601 39.1293C69.0074 39.1503 69.0293 39.2034 69.0093 39.2483L68.721 39.8959C68.7009 39.9408 68.6468 39.96 68.5995 39.939L64.1062 37.9381C64.0602 37.9176 64.0383 37.8646 64.0583 37.8196L64.3466 37.172C64.3667 37.1271 64.4208 37.1079 64.4668 37.1284Z" fill="black"/>
</g>
<g id="Group_7">
<path id="Vector_10" d="M66.3343 32.1381C66.6854 32.2945 66.849 32.6931 66.6997 33.0285C66.6083 33.2337 66.4203 33.3661 66.2092 33.4038L66.3756 36.0376L68.0524 34.2547C67.9132 34.066 67.8724 33.817 67.9713 33.5948C68.1207 33.2594 68.5266 33.1144 68.8776 33.2706C69.2285 33.4269 69.3923 33.8256 69.2429 34.1611C69.144 34.3832 68.9316 34.5194 68.6982 34.5423L68.495 36.9814L70.5637 35.3432C70.4496 35.1608 70.4232 34.9325 70.5146 34.7273C70.6639 34.3919 71.0699 34.2469 71.4208 34.4032C71.7718 34.5594 71.9356 34.9581 71.7862 35.2936C71.6617 35.5731 71.3593 35.7176 71.0579 35.6681L69.2258 38.7622L64.5631 36.6859L65.6361 33.2538C65.3985 33.0633 65.3036 32.7418 65.428 32.4623C65.5774 32.1269 65.9832 31.9818 66.3343 32.1381Z" fill="black"/>
</g>
</g>
</g>
<g id="Group_8">
<path id="Vector_11" d="M50.7686 35.3909L50.3252 34.9903C50.4018 34.827 50.4618 34.6369 50.5111 34.4061C50.6576 33.7218 50.4269 33.0597 49.8783 32.5895C49.4913 32.2582 49.0134 32.0591 48.5683 32.0478C48.4599 32.0451 48.3636 32.1148 48.3309 32.2202C48.3009 32.3238 48.3403 32.4374 48.4312 32.4976C48.4791 32.5284 48.532 32.5633 48.5844 32.5995L47.9256 32.5058C47.8454 32.4936 47.7666 32.5234 47.7111 32.5845L46.7271 33.6947C46.685 33.7422 46.6621 33.806 46.6662 33.8707C46.6698 33.9363 46.698 33.997 46.7459 34.0395L47.2471 34.493C47.3465 34.5821 47.4988 34.5744 47.5874 34.4735L47.9224 34.0961L48.8155 34.9039C48.5508 34.9383 48.2937 34.8428 48.0891 34.6315C48.0044 34.5432 47.8942 34.4943 47.7809 34.4943C47.6721 34.4943 47.5664 34.5396 47.48 34.6224L46.6299 35.4438C46.5358 35.5343 46.4888 35.6538 46.4942 35.781C46.5036 35.9475 46.6003 36.081 46.6814 36.1435C46.7638 36.2082 46.8771 36.2467 46.9864 36.2467C47.1329 36.2467 47.2636 36.1806 47.3559 36.0593L47.7872 35.4936C48.0913 35.7484 48.4868 35.8946 48.8898 35.8946C49.1738 35.8946 49.4447 35.8235 49.6839 35.6887L50.1398 36.1014C50.2267 36.1801 50.3382 36.2236 50.4551 36.2236C50.5895 36.2236 50.7167 36.1657 50.8063 36.0647C50.8905 35.9697 50.933 35.847 50.9258 35.719C50.9178 35.5927 50.8618 35.4759 50.7686 35.3909ZM48.0308 33.2421C47.9874 33.2896 47.9654 33.3534 47.9686 33.4181C47.9717 33.4589 47.9829 33.4951 48.0026 33.5286C47.9086 33.486 47.7944 33.5073 47.7227 33.5888L47.3895 33.9662L47.2489 33.839L47.986 33.0072L48.2109 33.0398L48.0308 33.2421ZM48.5517 33.386L48.8715 33.0244C48.91 32.981 48.9306 32.9262 48.9333 32.8705C49.1106 33.0271 49.2746 33.21 49.3811 33.4186C49.533 33.7155 49.5796 34.0268 49.5133 34.254L48.5517 33.386ZM50.0391 34.3038C49.9826 34.5645 49.9101 34.7654 49.8178 34.9139C49.7694 34.9917 49.7686 35.0881 49.8102 35.1641C49.7309 35.1261 49.636 35.1334 49.563 35.1877C49.3708 35.3307 49.1375 35.4067 48.8885 35.4067C48.8428 35.4067 48.7976 35.404 48.7523 35.3981C48.9127 35.3927 49.0766 35.3565 49.2271 35.294C49.2911 35.2669 49.3511 35.2338 49.4094 35.194C49.4716 35.1515 49.5101 35.0831 49.5151 35.0089C49.5177 34.9605 49.5061 34.9116 49.4837 34.87C49.5263 34.8903 49.5733 34.898 49.6212 34.8921C49.6915 34.8826 49.7538 34.841 49.7927 34.7799C49.8402 34.7012 49.8868 34.6156 49.9271 34.5238C50.0803 34.1807 50.0507 33.7236 49.8545 33.2874C50.014 33.5286 50.1322 33.868 50.0391 34.3038ZM62.9076 45.0436C62.9452 44.9141 63.08 44.8399 63.2068 44.8775C63.3362 44.9159 63.4097 45.0513 63.3721 45.1807C62.9345 46.6868 61.6697 47.6006 61.6155 47.6395C61.5734 47.6684 61.5255 47.6838 61.4771 47.6838C61.401 47.6838 61.3266 47.6476 61.2796 47.5797C61.2026 47.4707 61.2281 47.3177 61.3374 47.2408C61.3499 47.2304 62.5193 46.3818 62.9076 45.0436ZM62.7486 45.321C62.3926 46.2981 61.5757 46.8846 61.5416 46.909C61.5004 46.9385 61.4516 46.9538 61.4041 46.9538C61.328 46.9538 61.2527 46.9172 61.2048 46.8497C61.1287 46.7402 61.156 46.5882 61.2644 46.5103C61.2765 46.5008 61.9949 45.9804 62.2958 45.1531C62.3424 45.0264 62.4812 44.9621 62.6062 45.0087C62.7312 45.0553 62.7948 45.1947 62.7486 45.321ZM63.1253 43.6687L63.2829 43.3754C63.3134 43.3179 63.3662 43.2759 63.4271 43.2573C63.4894 43.2397 63.5557 43.2469 63.6117 43.2777L63.9005 43.4379C64.017 43.5026 64.0595 43.6506 63.9959 43.7678L63.8374 44.0629C63.8069 44.1199 63.7541 44.1624 63.6932 44.1805C63.6703 44.1873 63.6475 44.19 63.6251 44.19C63.5848 44.19 63.5436 44.1801 63.5078 44.1597L63.2207 43.9991C63.1051 43.9339 63.0608 43.7868 63.1253 43.6687ZM60.2195 41.3529L59.2606 40.7411C59.2064 40.7062 59.1397 40.6944 59.0779 40.7094C59.0161 40.7243 58.9606 40.7628 58.9265 40.8184L58.3237 41.7987C58.2529 41.9118 58.2879 42.0621 58.3989 42.1336L59.3596 42.7464C59.3981 42.7708 59.4429 42.7844 59.4882 42.7844C59.5065 42.7844 59.524 42.7821 59.5414 42.7776C59.6055 42.7636 59.6597 42.7242 59.6928 42.6685L60.2957 41.6878C60.3664 41.5738 60.3315 41.424 60.2195 41.3529ZM59.4111 42.2015L58.8602 41.8512L59.2082 41.2859L59.7578 41.6358L59.4111 42.2015ZM69.6982 41.3593C69.9257 41.8344 70 42.3721 69.9149 42.9152C69.8151 43.5533 69.502 44.1212 69.0349 44.5141C68.9883 44.5521 68.9332 44.5706 68.879 44.5706C68.8109 44.5706 68.7406 44.5408 68.6936 44.4828C68.6094 44.3792 68.6228 44.2253 68.725 44.1389C69.1021 43.8217 69.3555 43.3596 69.4371 42.8387C69.506 42.3952 69.446 41.9566 69.2619 41.5706C69.2033 41.4489 69.2539 41.304 69.3739 41.2443C69.4962 41.1864 69.6404 41.238 69.6982 41.3593ZM58.029 41.8865L57.0303 41.3466C56.9734 41.3158 56.908 41.3095 56.8448 41.3285C56.7835 41.3475 56.732 41.39 56.7024 41.448L56.1699 42.4685C56.1077 42.588 56.1515 42.7341 56.2707 42.7984L57.269 43.3397C57.3039 43.3587 57.3433 43.3677 57.3827 43.3677C57.4083 43.3677 57.4307 43.3641 57.4535 43.3573C57.5157 43.3383 57.5673 43.2953 57.5968 43.2378L58.1289 42.2155C58.1902 42.0969 58.1463 41.9499 58.029 41.8865ZM57.2829 42.7916L56.7091 42.4812L57.0164 41.8915L57.5901 42.2019L57.2829 42.7916ZM62.4669 41.0398L61.5739 40.3324C61.5242 40.2926 61.4583 40.274 61.3947 40.2822C61.3307 40.2917 61.2733 40.3242 61.2339 40.3758L60.5375 41.2896C60.456 41.3946 60.4744 41.5471 60.5796 41.6308L61.4726 42.3382C61.5156 42.3716 61.5672 42.3897 61.6204 42.3897C61.6307 42.3897 61.6415 42.3888 61.6509 42.3879C61.7158 42.3798 61.7718 42.3463 61.8108 42.2947L62.509 41.3805C62.5892 41.2746 62.5699 41.1221 62.4669 41.0398ZM61.5779 41.8019L61.0651 41.3946L61.4659 40.8682L61.9792 41.2746L61.5779 41.8019ZM61.8395 43.9511L61.998 43.6569C62.0285 43.5994 62.0804 43.5569 62.1422 43.5388C62.2036 43.5207 62.269 43.5293 62.3258 43.5596L62.6147 43.7207C62.7312 43.7854 62.7733 43.933 62.7101 44.0506L62.5516 44.3444C62.5211 44.4014 62.4683 44.4444 62.4065 44.4625C62.3836 44.4688 62.3617 44.472 62.3393 44.472C62.299 44.472 62.2578 44.4616 62.2228 44.4412L61.934 44.2806C61.8184 44.2158 61.7759 44.0683 61.8395 43.9511ZM63.9243 40.4025C63.8777 40.3559 63.8168 40.3306 63.7527 40.3306C63.6874 40.3306 63.626 40.3568 63.5803 40.4025L62.96 41.0343C62.8673 41.1294 62.8673 41.2823 62.96 41.3774L63.5776 42.0091C63.6242 42.0558 63.6851 42.0815 63.7501 42.0815C63.815 42.0815 63.8768 42.0548 63.9225 42.0091L64.5428 41.3756C64.6355 41.2805 64.6355 41.1271 64.5419 41.0321L63.9243 40.4025ZM63.7509 41.4914L63.4728 41.2063L63.7527 40.9212L64.0309 41.204L63.7509 41.4914ZM55.894 42.5685L54.8733 42.0725C54.8156 42.0444 54.7493 42.0417 54.6879 42.063C54.6275 42.0852 54.5777 42.13 54.5504 42.1893L54.0618 43.2329C54.0049 43.3546 54.0564 43.499 54.1756 43.5569L55.1985 44.0534C55.2307 44.0692 55.2666 44.0778 55.3024 44.0778C55.3297 44.0778 55.3566 44.0728 55.383 44.0647C55.4444 44.0425 55.4932 43.9972 55.5214 43.938L56.0087 42.8939C56.0656 42.7717 56.0145 42.6269 55.894 42.5685ZM55.1873 43.5071L54.6001 43.2225L54.8818 42.6201L55.469 42.9039L55.1873 43.5071ZM44.9119 48.6125C44.954 48.6618 45.0131 48.693 45.078 48.698C45.0839 48.698 45.0892 48.6989 45.0964 48.6989C45.1546 48.6989 45.2106 48.6777 45.255 48.6392L45.8994 48.0744C46.0002 47.987 46.0114 47.8341 45.9263 47.7313L45.3759 47.0751C45.3342 47.0249 45.2742 46.9937 45.2111 46.99C45.1466 46.9842 45.0825 47.0054 45.0337 47.0484L44.3879 47.6128C44.2867 47.7001 44.275 47.8531 44.3606 47.9554L44.9119 48.6125ZM45.1645 47.5788L45.4027 47.863L45.1224 48.1092L44.8828 47.8241L45.1645 47.5788ZM40.3486 47.1095C40.2939 46.9882 40.345 46.8443 40.465 46.7868L40.7731 46.6402C40.8314 46.6126 40.8972 46.6099 40.9586 46.6316C41.019 46.6533 41.0683 46.699 41.0952 46.7592L41.238 47.0715C41.294 47.1937 41.2425 47.3381 41.1216 47.3951L40.8135 47.5413C40.7817 47.5562 40.7467 47.5653 40.7109 47.5653C40.6831 47.5653 40.6549 47.5589 40.6276 47.5503C40.5671 47.5281 40.5174 47.482 40.4901 47.4227L40.3486 47.1095ZM53.8392 43.3641L52.8588 42.9174C52.8002 42.8898 52.7339 42.8889 52.6739 42.9116C52.6138 42.9342 52.565 42.9803 52.5391 43.0401L52.097 44.0425C52.0433 44.1651 52.0975 44.3086 52.2184 44.3638L53.1992 44.8119C53.2315 44.8259 53.2646 44.8336 53.2991 44.8336C53.3277 44.8336 53.3578 44.8277 53.3846 44.8177C53.4451 44.7942 53.493 44.7476 53.5194 44.6888L53.9606 43.6863C54.0139 43.5637 53.9597 43.4193 53.8392 43.3641ZM53.1759 44.2661L52.6358 44.019L52.8808 43.4628L53.4218 43.709L53.1759 44.2661ZM75.2083 41.7593C74.9955 41.0696 74.2879 41.1352 73.772 41.1828C73.6381 41.195 73.5104 41.2067 73.3993 41.2072C73.3975 41.2072 73.3958 41.2072 73.3949 41.2072C72.5157 41.2072 71.2894 40.661 70.0954 40.0699C69.0205 39.5386 68.4334 39.4399 68.2207 39.4236C68.0764 39.3254 67.6913 39.0865 67.0441 38.8358C66.9819 38.7249 66.4668 37.8419 65.8429 37.6795C65.8255 37.6759 65.8089 37.6722 65.7914 37.67C65.7869 37.6351 65.7775 37.5799 65.7628 37.4966C65.1949 34.4866 63.6224 31.7242 61.3034 29.7248C59.8948 28.5092 58.2865 27.6204 56.5237 27.0791C56.3961 27.0393 56.2613 27.1126 56.2228 27.2416C56.1833 27.3705 56.2559 27.5068 56.3835 27.5466C58.0832 28.067 59.6324 28.9246 60.9898 30.095C62.6223 31.5038 63.8755 33.3027 64.6418 35.3017H57.3639C57.3657 35.2755 57.3657 35.2501 57.3657 35.2234C57.3657 34.9261 57.3142 34.6396 57.2108 34.3667C57.5144 33.7128 57.4625 32.9163 57.054 32.0555C56.7521 31.4219 56.3638 30.9675 56.3208 30.9177C56.2384 30.8159 56.1677 30.7091 56.109 30.5969C56.2219 30.4883 56.2881 30.3425 56.2881 30.1769C56.2881 29.9293 56.1283 29.7153 55.9007 29.6193C56.0633 29.3623 56.1457 29.0944 56.1457 28.8201C56.1457 28.3906 55.9473 27.9806 55.5554 27.6023C55.529 27.5765 55.5003 27.5597 55.4681 27.5493C55.2424 26.927 54.5437 26.3686 53.4428 25.9423C52.5879 25.611 51.547 25.3793 50.4121 25.2607C50.4135 25.2412 50.4162 25.2209 50.4162 25.2005C50.4162 24.6638 49.984 24.2275 49.4519 24.2275C49.3556 24.2275 49.2616 24.2424 49.1733 24.27C49.047 23.8822 48.6843 23.6016 48.2592 23.6016C47.7281 23.6016 47.2963 24.0383 47.2963 24.5737C47.2963 24.6357 47.3026 24.695 47.3133 24.7529C47.0025 24.8077 46.7441 25.0136 46.6115 25.2928C46.1086 25.3539 45.6276 25.4377 45.1734 25.544C44.9907 25.3806 44.7999 25.2621 44.6029 25.1896C44.5052 25.1421 44.3924 25.0905 44.2499 25.034C44.2432 25.0313 44.2369 25.0294 44.2298 25.0267C43.5943 24.833 43.4165 24.3832 43.1706 23.7609C43.0658 23.4957 42.9462 23.1952 42.7778 22.8929C42.6694 22.6983 40.8484 19.2538 39.7614 17.196C39.1371 16.0162 38.9185 15.6026 38.9087 15.584C38.674 15.1595 38.1697 14.9934 37.7832 15.212C37.3994 15.4319 37.278 15.9537 37.5122 16.3769C37.5198 16.3882 37.6694 16.6466 38.2575 17.6586C39.4089 19.6358 41.5533 23.3201 41.6675 23.5242C41.835 23.8265 42.0272 24.0863 42.196 24.3144C42.5951 24.8511 42.8817 25.2381 42.7142 25.888C42.7129 25.8943 42.7111 25.9011 42.7097 25.9074C42.6663 26.1627 42.6416 26.3731 42.6524 26.5722C42.2345 26.8718 41.956 27.2058 41.831 27.5597C41.8113 27.5692 41.7925 27.5819 41.7759 27.5977C41.384 27.977 41.1856 28.387 41.1856 28.8156C41.1856 29.0894 41.2685 29.3573 41.4311 29.6148C41.2018 29.713 41.0432 29.9262 41.0432 30.1733C41.0432 30.3385 41.109 30.4846 41.2206 30.5942C41.1628 30.7046 41.0925 30.8114 41.0092 30.915C40.9666 30.9625 40.5779 31.4169 40.2774 32.0519C39.8698 32.9126 39.8165 33.7091 40.1202 34.3622C40.0171 34.6355 39.9647 34.9225 39.9647 35.2198C39.9647 36.4494 40.8605 37.4803 42.0939 37.6695C42.1033 37.6704 42.1118 37.6718 42.1199 37.6722C42.1293 37.6722 42.3371 37.6845 42.3371 37.8039C42.3371 37.9564 42.11 38.118 42.0043 38.171C41.6339 38.3438 41.3957 38.6891 41.3957 39.0498C41.3957 39.5911 41.9027 40.0323 42.5243 40.0323C43.0008 40.0323 43.3049 39.768 43.3376 39.7386C43.7958 39.3173 44.082 38.6226 44.082 37.9248C44.082 37.7564 44.065 37.5894 44.035 37.426C45.2648 37.9791 46.8673 38.2936 48.5521 38.2936C48.5777 38.2936 48.6019 38.2936 48.6274 38.2936C48.6413 38.2954 48.6552 38.2972 48.6686 38.2981C48.7053 38.2981 48.7425 38.2981 48.7797 38.2981C50.4659 38.2981 52.0688 37.9836 53.2977 37.4306C53.2673 37.5939 53.2507 37.7605 53.2507 37.9297C53.2507 38.0777 53.2646 38.2253 53.2883 38.3714C53.3846 38.299 53.4782 38.2529 53.5512 38.2266C53.6153 38.2022 53.6816 38.1868 53.7487 38.1764C53.7393 38.094 53.7344 38.0126 53.7344 37.9306C53.7344 37.6709 53.7801 37.4125 53.8679 37.1803C53.9248 37.1495 53.9857 37.1079 54.0497 37.0626C54.2862 36.8993 54.6664 36.6046 55.1788 36.1869C56.2635 35.3049 55.8165 34.2269 55.3844 33.1828C55.1815 32.6977 54.9741 32.1935 54.9024 31.6916C54.816 31.0693 54.8921 30.5946 55.1237 30.3181C55.3396 30.0619 55.6222 30.052 55.624 30.052C55.7314 30.052 55.8067 30.1181 55.8067 30.1782C55.8067 30.2647 55.7028 30.3009 55.6105 30.3054C55.572 30.3072 55.5353 30.3194 55.5048 30.338C55.3866 30.3824 55.2899 30.476 55.2312 30.6086C54.8881 31.3748 55.7149 33.0507 56.6867 34.3721C56.6867 34.373 56.6885 34.3731 56.6885 34.374C56.8189 34.641 56.8838 34.9265 56.8838 35.2243C56.8838 36.2073 56.1663 37.0323 55.177 37.1893C54.9033 37.2047 54.5115 37.3794 54.5115 37.8075C54.5115 37.9985 54.5912 38.1565 54.6933 38.2814C54.7932 37.7876 55.031 37.4736 55.4018 37.3482C55.5008 37.3156 55.602 37.2989 55.7073 37.2989C55.843 37.2989 55.9742 37.3265 56.1036 37.3758C56.7065 37.0382 57.1436 36.4666 57.3012 35.7905H64.8196C65.0171 36.3752 65.1702 36.9757 65.2867 37.5858C65.2997 37.6591 65.3104 37.7048 65.3171 37.7333C65.2943 37.7442 65.2724 37.756 65.2509 37.7686C64.906 37.9854 64.6901 38.1117 64.5643 38.1827C64.489 38.0727 64.3632 37.8741 64.1621 37.5233C63.8535 36.9857 63.5225 36.8798 63.3031 36.8875C62.9811 36.897 62.6855 37.1414 62.4723 37.5736C62.3796 37.76 62.2466 37.8659 62.0898 37.88C61.9008 37.8958 61.7015 37.7818 61.551 37.5749C61.3419 37.2885 61.0543 36.9622 60.6974 36.9875C60.3378 37.0133 60.1098 37.3658 59.9714 37.6288C59.7752 37.9963 59.6592 38.085 59.5952 38.0949C59.5629 38.1004 59.4631 38.0895 59.2584 37.8854C58.8938 37.5233 58.5167 37.1486 58.124 37.2346C57.8879 37.2857 57.7034 37.4908 57.5596 37.8619C57.4633 38.1112 57.2632 38.6303 57.0822 38.6701C57.0401 38.6796 56.9116 38.6733 56.6433 38.4099C56.2192 37.9954 55.8743 37.7406 55.5675 37.8433C55.2979 37.9338 55.2213 38.2416 55.1851 38.466L55.1806 38.4986C55.1456 38.7154 55.0758 39.168 54.9862 39.2236C54.9853 39.2232 54.9257 39.2263 54.7815 39.1096C54.4506 38.8448 54.0672 38.5909 53.729 38.7149C53.5942 38.7647 53.4191 38.896 53.3501 39.2399C53.3125 39.4268 53.2995 39.6115 53.287 39.7744C53.2798 39.8631 53.2713 39.9808 53.2556 40.0676C53.2109 40.0862 53.1674 40.1048 53.1217 40.1229C53.1096 40.1179 53.098 40.1129 53.0841 40.1061C52.9224 40.0296 52.7854 39.9445 52.6631 39.8703C52.4186 39.7187 52.2063 39.5888 51.9913 39.6898C51.7943 39.7816 51.7342 40.007 51.7011 40.2156C51.659 40.4817 51.6209 40.6569 51.5873 40.7709C51.4982 40.8089 51.4095 40.8479 51.3191 40.8868C51.3164 40.885 51.3146 40.8836 51.3119 40.8823C50.8443 40.5664 50.5689 40.3926 50.3199 40.5039C50.0834 40.6085 50.044 40.8818 49.9759 41.3335L49.9665 41.4013C49.9607 41.4394 49.9499 41.4692 49.9343 41.4946C49.8819 41.5181 49.8308 41.5416 49.7762 41.5634C49.7036 41.5597 49.6109 41.5263 49.5155 41.4394C49.206 41.1547 48.953 41.1606 48.7958 41.2153C48.6095 41.2801 48.3658 41.4828 48.2646 42.0797C48.2521 42.1544 48.2382 42.211 48.2261 42.2549C48.1795 42.2752 48.132 42.2965 48.0864 42.3173C47.8718 42.1621 47.6291 41.9901 47.3657 42.068C47.1924 42.1178 47.0607 42.2617 46.9631 42.5051C46.9165 42.6228 46.8803 42.7323 46.8494 42.8292C46.8458 42.8428 46.84 42.8572 46.8355 42.8722C46.8117 42.883 46.7871 42.8948 46.7607 42.9048C46.6048 42.7663 46.3912 42.6273 46.1646 42.6979C45.9223 42.7744 45.8251 43.0319 45.7521 43.3361C44.7695 43.475 43.9552 42.5848 43.1643 41.7195L43.0949 41.6435C42.2892 40.7646 41.2461 40.2663 40.8336 40.0925C40.8 40.079 40.7646 40.0731 40.7306 40.0749C40.6142 40.0097 40.4668 40.0532 40.4037 40.1722C40.3392 40.2908 40.3831 40.4392 40.5008 40.503C40.9205 40.7347 41.2645 41.6317 41.075 42.8391C41.0137 43.2274 40.9017 43.5999 40.7503 43.9194C40.6151 43.8959 40.4838 43.8692 40.3553 43.8407C40.3423 43.7895 40.3235 43.7158 40.2953 43.6139C39.9692 42.4373 39.7865 41.2208 39.7865 39.988C39.7865 39.091 39.8779 38.1945 40.057 37.3233C40.0834 37.1925 39.9997 37.0631 39.8694 37.0346C39.7386 37.007 39.6109 37.0916 39.5836 37.2237C39.3982 38.1266 39.3024 39.0571 39.3024 39.9871C39.3024 41.2516 39.477 42.5033 39.8178 43.7076C39.3422 43.5741 38.945 43.4184 38.683 43.2609C37.9153 42.7989 37.4979 42.4183 36.9829 40.9243C35.4883 36.5847 32.5082 34.8261 32.3824 34.7537C32.2834 34.6971 32.1602 34.7165 32.0841 34.8012C32.0071 34.8863 31.9999 35.0125 32.0648 35.1062C32.0724 35.1157 32.8025 36.1711 33.4447 37.5953C34.0292 38.8914 34.6575 40.7705 34.3337 42.3544C34.1349 43.3293 33.5934 44.0977 32.7214 44.6372C32.265 44.9191 31.6828 45.3481 31.879 45.8075C32.1419 46.4198 33.6691 46.2822 34.4269 46.0709C36.8552 45.3993 38.2897 46.5977 39.5563 47.6558C39.6445 47.7295 39.7328 47.8024 39.8192 47.8734C39.8559 48.0359 39.9271 48.4129 39.8949 48.8492C39.8389 49.5959 39.5164 50.1612 38.9351 50.5323C38.6606 50.7069 38.5499 50.9848 38.6601 51.2251C38.7363 51.3894 38.94 51.5926 39.49 51.5926C39.8219 51.5926 40.2823 51.5179 40.9169 51.3161C41.7907 51.036 42.5207 50.6558 43.1643 50.3214C43.3676 50.2155 43.5593 50.115 43.7416 50.0263C44.5316 50.7413 45.4005 51.3591 46.3307 51.8646C46.2438 52.08 46.182 52.2067 46.1811 52.2094C46.1355 52.3009 46.1529 52.4108 46.2214 52.4855C46.268 52.5344 46.3316 52.5624 46.3984 52.5624C46.4293 52.5624 46.4624 52.5552 46.492 52.543C46.5202 52.5308 46.7455 52.433 47.0845 52.2447C48.8339 53.0571 50.705 53.4689 52.6452 53.4689C52.6465 53.4689 52.6474 53.4689 52.6474 53.4689C55.34 53.4689 57.9363 52.6616 60.1537 51.1342C62.2564 49.6851 63.8934 47.6829 64.8984 45.3332C64.9517 45.3676 64.9965 45.4038 65.0269 45.4378C65.0739 45.4975 65.1286 45.5518 65.1886 45.602C66.0624 46.3157 68.2162 45.7668 69.8693 45.1798C69.9342 45.1567 69.9996 45.1332 70.0636 45.1096C70.09 45.1006 70.1151 45.0911 70.138 45.0825C70.2213 45.0513 70.3059 45.02 70.3883 44.9888C70.3839 45.2178 70.361 45.4454 70.3176 45.6523C70.2898 45.784 70.3736 45.9139 70.5039 45.9424C70.5205 45.946 70.537 45.9478 70.5527 45.9478C70.6647 45.9478 70.7663 45.8695 70.7887 45.7545C70.8474 45.4771 70.877 45.1689 70.8734 44.8644C70.8734 44.8417 70.8716 44.8209 70.8716 44.7992C70.9128 44.7824 70.9558 44.7657 70.9956 44.749C70.993 44.963 70.9661 45.1997 70.9141 45.4473C70.8581 45.7229 70.7744 45.998 70.6691 46.2388C70.6176 46.3628 70.6736 46.5058 70.7959 46.5597C70.8263 46.5732 70.8599 46.58 70.8913 46.58C70.9849 46.58 71.0731 46.5248 71.1125 46.4334C71.2299 46.1609 71.3253 45.855 71.3862 45.5468C71.4596 45.1902 71.4901 44.8458 71.4735 44.5489C71.4999 44.5372 71.5259 44.5254 71.5523 44.5141C71.5586 44.6793 71.5488 44.8508 71.5246 45.0277C71.495 45.2536 71.4404 45.4771 71.366 45.6912C71.3194 45.8179 71.3862 45.9577 71.512 46.0026C71.5376 46.0121 71.5662 46.017 71.5926 46.017C71.6925 46.017 71.7852 45.9537 71.8202 45.8541C71.9066 45.6093 71.9689 45.354 72.0047 45.0947C72.0405 44.8209 72.0477 44.5557 72.0239 44.3041C73.093 43.8158 73.978 43.327 74.4415 42.9935C75.1277 42.5011 75.3341 42.1671 75.2083 41.7593ZM55.0413 27.8C54.9016 27.5312 54.6422 27.3371 54.3377 27.2864C54.0385 27.0805 53.6708 26.8913 53.2391 26.7243C53.1316 26.6817 53.021 26.6428 52.909 26.6057C52.7316 26.3867 52.4638 26.2468 52.1628 26.2468C52.0446 26.2468 51.9322 26.269 51.8278 26.3088C51.7195 26.2849 51.6106 26.2618 51.4991 26.241C51.4825 26.1138 51.4427 25.9934 51.3818 25.8857C53.4827 26.2545 54.8415 27.028 55.0413 27.8ZM54.6669 28.2472C54.6669 28.516 54.4505 28.7332 54.1863 28.7332C53.9216 28.7332 53.7057 28.516 53.7057 28.2472C53.7057 27.9801 53.9212 27.7629 54.1863 27.7629C54.4501 27.7629 54.6669 27.9801 54.6669 28.2472ZM52.1624 27.7054C51.8977 27.7054 51.6818 27.4882 51.6818 27.2203C51.6818 26.9533 51.8977 26.7351 52.1624 26.7351C52.4266 26.7351 52.6425 26.9533 52.6425 27.2203C52.643 27.4878 52.4262 27.7054 52.1624 27.7054ZM52.2072 29.7488C52.2072 29.8144 52.1942 29.8786 52.1691 29.9388C51.9237 29.999 51.6662 30.0538 51.3948 30.1004C51.3921 30.0977 51.3894 30.0941 51.3867 30.0914C51.2962 29.9995 51.2461 29.8773 51.2461 29.7483C51.2461 29.4804 51.4615 29.2623 51.7262 29.2623C51.9922 29.2627 52.2072 29.4808 52.2072 29.7488ZM52.7003 28.1005C52.965 28.1005 53.1804 28.3178 53.1804 28.5848C53.1804 28.8527 52.965 29.0699 52.7003 29.0699C52.436 29.0699 52.2206 28.8527 52.2206 28.5848C52.2197 28.3178 52.436 28.1005 52.7003 28.1005ZM53.0174 27.6665C53.0868 27.533 53.1271 27.381 53.1271 27.2203C53.1271 27.2122 53.1253 27.2063 53.1253 27.1981C53.3161 27.2751 53.4917 27.3565 53.652 27.4393C53.5073 27.5384 53.3896 27.6751 53.3152 27.8371C53.2274 27.7629 53.1267 27.7054 53.0174 27.6665ZM51.5739 28.4798C51.5739 28.6133 51.5206 28.7341 51.4342 28.8219C51.337 28.8527 51.2474 28.9007 51.1663 28.959C51.1422 28.9636 51.1184 28.9663 51.0929 28.9663C50.8282 28.9663 50.6137 28.7491 50.6137 28.4811C50.6137 28.2132 50.8282 27.996 51.0929 27.996C51.3585 27.9942 51.5739 28.2119 51.5739 28.4798ZM47.1826 29.0188C47.1826 29.2849 46.9676 29.503 46.7025 29.503C46.4378 29.503 46.2228 29.2849 46.2228 29.0188C46.2228 28.7509 46.4378 28.5327 46.7025 28.5327C46.9676 28.5327 47.1826 28.7509 47.1826 29.0188ZM47.4119 29.99C47.6197 29.99 47.7966 30.1235 47.8638 30.3108C47.5619 30.2986 47.2695 30.2765 46.9864 30.2479C47.067 30.0954 47.2274 29.99 47.4119 29.99ZM47.6439 28.4753C47.5856 28.4753 47.5319 28.4657 47.4817 28.4463C47.4074 28.3436 47.3151 28.2571 47.2068 28.1901C47.1794 28.1299 47.1642 28.0621 47.1642 27.9919C47.1642 27.7231 47.3792 27.5059 47.6439 27.5059C47.909 27.5059 48.1235 27.7231 48.1235 27.9919C48.1235 28.2576 47.9077 28.4753 47.6439 28.4753ZM48.7434 26.2007C49.0085 26.2007 49.2244 26.4179 49.2244 26.6858C49.2244 26.9537 49.0085 27.171 48.7434 27.171C48.4787 27.171 48.2642 26.9537 48.2642 26.6858C48.2633 26.4193 48.4787 26.2007 48.7434 26.2007ZM48.8034 28.7703C49.0694 28.7703 49.284 28.9876 49.284 29.2564C49.284 29.5234 49.0694 29.7406 48.8034 29.7406C48.5383 29.7406 48.3237 29.5234 48.3237 29.2564C48.3233 28.9885 48.5387 28.7703 48.8034 28.7703ZM49.8012 27.3642C50.0668 27.3642 50.2814 27.5814 50.2814 27.8494C50.2814 27.8996 50.2728 27.9485 50.2599 27.9933C50.2352 28.034 50.2146 28.0774 50.1972 28.1223C50.1112 28.2494 49.9652 28.3345 49.8004 28.3345C49.5357 28.3345 49.3211 28.1173 49.3211 27.8494C49.3211 27.5814 49.5366 27.3642 49.8012 27.3642ZM50.1515 29.5066C50.4166 29.5066 50.6316 29.7239 50.6316 29.9918C50.6316 30.0723 50.611 30.1511 50.5738 30.2217C50.3123 30.2516 50.0426 30.2765 49.7641 30.2941C49.7587 30.2774 49.7506 30.2624 49.7417 30.2466C49.6951 30.1706 49.67 30.0823 49.67 29.9922C49.6709 29.7248 49.8868 29.5066 50.1515 29.5066ZM50.542 25.8766C50.8063 25.8766 51.0221 26.0939 51.0221 26.3618C51.0221 26.6288 50.8063 26.8469 50.542 26.8469C50.2773 26.8469 50.0615 26.6288 50.0615 26.3618C50.0615 26.0939 50.2773 25.8766 50.542 25.8766ZM49.4528 24.7167C49.7197 24.7167 49.9338 24.9335 49.9338 25.2019C49.9338 25.4698 49.7193 25.6861 49.4528 25.6861C49.1886 25.6861 48.974 25.4693 48.974 25.2019C48.9736 24.9335 49.1886 24.7167 49.4528 24.7167ZM48.2601 24.0899C48.5163 24.0899 48.7259 24.2949 48.7389 24.5515C48.6305 24.6737 48.5517 24.8213 48.5145 24.9864C48.4411 25.034 48.3542 25.0607 48.2601 25.0607C48.2346 25.0607 48.2122 25.0589 48.1894 25.0552C48.0926 24.9493 47.9744 24.8643 47.8405 24.8095C47.802 24.7407 47.78 24.6611 47.78 24.5751C47.7791 24.3076 47.995 24.0899 48.2601 24.0899ZM47.4795 25.2268C47.7437 25.2268 47.9592 25.444 47.9592 25.7119C47.9592 25.9798 47.7437 26.1971 47.4795 26.1971C47.2139 26.1971 46.9989 25.9798 46.9989 25.7119C46.9989 25.444 47.2148 25.2268 47.4795 25.2268ZM46.8014 26.794C46.8014 27.0619 46.5865 27.2791 46.3213 27.2791C46.0562 27.2791 45.8417 27.0619 45.8417 26.794C45.8417 26.5261 46.0562 26.3097 46.3213 26.3097C46.5856 26.3097 46.8014 26.5261 46.8014 26.794ZM45.9196 28.4123C45.9196 28.4273 45.9191 28.4413 45.9178 28.4567C45.8537 28.5468 45.8058 28.6486 45.7754 28.7581C45.6898 28.8436 45.5711 28.8979 45.4395 28.8979C45.1752 28.8979 44.9594 28.6807 44.9594 28.4128C44.9594 28.1449 45.1752 27.9286 45.4395 27.9286C45.7042 27.9272 45.9196 28.1444 45.9196 28.4123ZM45.6558 29.6198C45.92 29.6198 46.1359 29.8379 46.1359 30.1058C46.1359 30.1162 46.1346 30.1289 46.1332 30.1384C45.8054 30.0864 45.4928 30.0235 45.1994 29.9538C45.263 29.7605 45.4435 29.6198 45.6558 29.6198ZM46.0298 25.8667C45.8842 25.9128 45.7543 25.9929 45.6477 26.0984C45.6146 26.0509 45.581 26.0029 45.5461 25.9576C45.7037 25.9251 45.8645 25.8943 46.0298 25.8667ZM42.5839 24.0229C42.4155 23.7958 42.2408 23.5609 42.0894 23.2857C41.9721 23.0771 39.8268 19.3919 38.6744 17.4119C38.2526 16.6855 37.9471 16.1601 37.9341 16.1393C37.8302 15.9501 37.8683 15.7266 38.0197 15.6397C38.1733 15.5532 38.3829 15.6361 38.4872 15.8234C38.5029 15.8551 38.8702 16.5493 39.3355 17.4277C40.495 19.6209 42.2466 22.9345 42.3573 23.1341C42.5095 23.4079 42.6179 23.6804 42.7209 23.9437C42.9834 24.6049 43.231 25.2299 44.0802 25.4924C44.2123 25.5454 44.3135 25.5906 44.4 25.6336C44.4094 25.6381 44.4197 25.6427 44.4286 25.6458C44.7565 25.7608 45.0848 26.0826 45.3821 26.579C45.3665 26.6478 45.358 26.7198 45.358 26.7931C45.358 27.0483 45.4574 27.2809 45.6164 27.4552C45.5591 27.4439 45.4995 27.4375 45.439 27.4375C44.9441 27.4375 44.5343 27.8186 44.4815 28.3046C44.3888 28.2757 44.2889 28.2576 44.1863 28.2576C44.0753 28.2576 43.9696 28.2779 43.8701 28.3132C43.7528 28.1603 43.6408 27.9878 43.536 27.7996C43.3063 27.3868 43.1777 27.0171 43.1536 26.7008C43.1522 26.6917 43.1518 26.6822 43.15 26.6731C43.1191 26.5129 43.128 26.3292 43.184 25.9988C43.4048 25.1304 43.0062 24.5923 42.5839 24.0229ZM44.6665 29.2328C44.6665 29.4256 44.554 29.5999 44.3794 29.6773C44.3632 29.6845 44.348 29.694 44.3328 29.7049C44.1335 29.6379 43.9476 29.5641 43.7739 29.4881C43.7703 29.4799 43.768 29.4704 43.7636 29.4623C43.7259 29.3908 43.7053 29.3139 43.7053 29.2324C43.7053 28.9645 43.9217 28.7472 44.1863 28.7472C44.4519 28.7472 44.6665 28.9649 44.6665 29.2328ZM43.4689 28.5866C43.3215 28.7536 43.2297 28.9722 43.2234 29.2107C42.9287 29.0373 42.6949 28.8527 42.5292 28.6626C42.5422 28.3902 42.7111 28.1146 43.0165 27.8557C43.047 27.9168 43.0806 27.9783 43.1155 28.0403C43.2261 28.239 43.3448 28.4214 43.4689 28.5866ZM42.7366 27.1221C42.7594 27.2103 42.7863 27.3013 42.8195 27.3954C42.5642 27.5919 42.3693 27.8018 42.239 28.0222C42.239 28.0141 42.2377 28.0046 42.2377 27.9946C42.2372 27.7018 42.4123 27.4031 42.7366 27.1221ZM41.3742 31.2354C41.3764 31.2327 41.3782 31.23 41.38 31.2282C41.4906 31.0929 41.5851 30.949 41.6613 30.7996C41.7638 30.9788 41.6975 32.0247 40.4462 33.8128C40.1927 32.5995 41.3603 31.2508 41.3742 31.2354ZM43.0165 39.3748C43.0147 39.3761 42.8199 39.5445 42.5248 39.5445C42.1691 39.5445 41.8798 39.3223 41.8798 39.0498C41.8798 38.8806 42.0128 38.7054 42.2117 38.6122C42.2748 38.5819 42.8208 38.3013 42.8208 37.8039C42.8208 37.3754 42.4289 37.2007 42.1557 37.1848C41.1659 37.0273 40.4493 36.2028 40.4493 35.2202C40.4493 34.9225 40.5147 34.636 40.6446 34.3694C40.6451 34.3685 40.646 34.3676 40.646 34.3676C41.6174 33.0461 42.4441 31.3703 42.1015 30.6041C42.042 30.4706 41.9457 30.3778 41.8279 30.3335C41.7961 30.3149 41.7602 30.3027 41.7217 30.3009C41.6245 30.2964 41.526 30.2547 41.526 30.1746C41.526 30.1135 41.6021 30.0484 41.7078 30.0484C41.7101 30.0484 41.994 30.0574 42.2099 30.3145C42.4419 30.5901 42.518 31.0648 42.4294 31.688C42.359 32.189 42.1503 32.6922 41.9483 33.1792C41.5166 34.2214 41.0683 35.3004 42.1535 36.1824C42.6667 36.6006 43.0461 36.8943 43.2825 37.0576C43.3479 37.1034 43.4084 37.1441 43.4653 37.1758C43.5531 37.4093 43.5996 37.6659 43.5996 37.9261C43.5992 38.4805 43.369 39.0503 43.0165 39.3748ZM54.137 36.3937C54.1205 36.4014 54.1052 36.4091 54.0914 36.4204C52.9045 37.2912 50.9182 37.8107 48.7797 37.8107C48.7564 37.8107 48.7331 37.8098 48.7089 37.8098C48.6941 37.8071 48.6784 37.8053 48.6623 37.8053H48.6601C48.6243 37.8057 48.5893 37.8057 48.5526 37.8057C46.414 37.8057 44.4291 37.2866 43.2427 36.415C43.2284 36.4051 43.2131 36.396 43.1961 36.3892C43.0259 36.2589 42.8002 36.0806 42.5042 35.8398C44.0565 36.4281 46.3518 36.9432 48.6359 36.9454C48.6498 36.9486 48.665 36.9504 48.6811 36.9504C50.9711 36.9504 53.2731 36.4336 54.8281 35.8443C54.5321 36.0855 54.3059 36.2634 54.137 36.3937ZM55.0314 33.5974C55.0856 33.7318 55.1353 33.8598 55.1792 33.9829C54.8729 34.188 54.4644 34.3771 53.9597 34.5468C53.8343 34.5903 53.7644 34.7279 53.8079 34.8564C53.8401 34.9582 53.9346 35.0225 54.0363 35.0225C54.0618 35.0225 54.086 35.018 54.1124 35.0112C54.5948 34.8487 54.9983 34.6672 55.3216 34.4685C55.3696 34.6975 55.3839 34.9071 55.3436 35.1003C53.8961 35.7801 51.2922 36.4603 48.6955 36.4634C48.6811 36.4603 48.6672 36.4585 48.6511 36.4585C46.0499 36.4585 43.4384 35.7764 41.9891 35.0958C41.9524 34.9216 41.9587 34.736 41.9958 34.5355C42.3178 34.7174 42.7111 34.8854 43.1715 35.0356C43.1961 35.0447 43.2207 35.0478 43.2454 35.0478C43.3479 35.0478 43.442 34.9817 43.4756 34.879C43.5163 34.7509 43.4474 34.6129 43.3206 34.5713C42.836 34.4129 42.4374 34.2373 42.1297 34.0481C42.1723 33.9228 42.222 33.7911 42.2766 33.6539C42.5557 33.8024 42.8754 33.9413 43.2328 34.0667C43.2593 34.0762 43.2861 34.0807 43.3126 34.0807C43.4138 34.0807 43.5065 34.0178 43.5405 33.9173C43.5858 33.7901 43.5186 33.6512 43.3927 33.606C43.0411 33.4815 42.7303 33.3462 42.4629 33.2005C42.5167 33.0697 42.5686 32.938 42.6197 32.8045C42.8624 32.9267 43.1285 33.0398 43.4156 33.1439C43.4424 33.1534 43.4693 33.1588 43.4971 33.1588C43.5965 33.1588 43.6892 33.0968 43.7255 32.9973C43.7712 32.871 43.7049 32.7312 43.5795 32.6859C43.2875 32.5791 43.0179 32.4632 42.7774 32.3383C42.8217 32.1908 42.8589 32.0405 42.8866 31.8894C42.8875 31.8799 42.8875 31.8699 42.8884 31.8613C43.1128 31.9622 43.3609 32.0568 43.6323 32.146C43.6579 32.1541 43.6825 32.1573 43.7062 32.1573C43.8088 32.1573 43.9037 32.0912 43.9373 31.9885C43.979 31.8604 43.9087 31.7215 43.781 31.6808C43.4657 31.5771 43.188 31.4676 42.9457 31.3508C42.9547 31.1494 42.9449 30.9612 42.9175 30.7897C44.3144 31.4622 46.3997 31.8573 48.6368 31.8591C48.652 31.8618 48.6677 31.8636 48.6834 31.8636C50.9258 31.8636 53.0196 31.4685 54.4183 30.7942C54.3964 30.9354 54.3861 31.0874 54.387 31.2495C54.1567 31.3635 53.8916 31.4721 53.5911 31.573C53.4643 31.6156 53.3954 31.7532 53.4384 31.8826C53.4706 31.9844 53.5669 32.0496 53.6672 32.0496C53.6928 32.0496 53.7183 32.0451 53.7434 32.0365C53.9937 31.9523 54.2221 31.8631 54.4304 31.7686C54.4349 31.7966 54.4398 31.8287 54.4461 31.8677C54.4631 31.9713 54.4877 32.0718 54.5119 32.1727C54.2835 32.2999 54.0273 32.4221 53.747 32.5325C53.6233 32.5818 53.562 32.7244 53.6108 32.8497C53.6475 32.9452 53.7389 33.0045 53.8361 33.0045C53.8647 33.0045 53.8947 32.9982 53.9239 32.9878C54.1868 32.8828 54.4326 32.7696 54.6566 32.6501C54.7152 32.8171 54.7797 32.9814 54.8465 33.1452C54.5768 33.3018 54.2562 33.4485 53.8894 33.582C53.764 33.6281 53.6995 33.7675 53.7443 33.8938C53.7801 33.9938 53.8724 34.0544 53.9709 34.0544C53.9987 34.0544 54.026 34.0499 54.0546 34.0404C54.4201 33.9051 54.7497 33.7558 55.0314 33.5974ZM55.3561 29.5438C55.336 29.5677 55.3221 29.5949 55.3105 29.6216C55.1452 29.6773 54.9414 29.7841 54.7627 29.9909C54.7296 30.0289 54.7005 30.0705 54.6709 30.1131C54.6516 30.1185 54.6333 30.1253 54.614 30.1371C53.313 30.9114 51.1014 31.3744 48.6964 31.3753C48.6811 31.3735 48.6672 31.3707 48.6507 31.3707C46.2394 31.3707 44.0215 30.9078 42.716 30.1325C42.6976 30.1221 42.6788 30.114 42.66 30.1086C42.6318 30.066 42.6004 30.0235 42.5673 29.9859C42.3899 29.7791 42.1848 29.6732 42.0196 29.6184C42.0102 29.5904 41.9954 29.5637 41.9752 29.5397C41.771 29.3021 41.6671 29.0582 41.6671 28.8165C41.6671 28.6572 41.7137 28.4983 41.8014 28.3408C41.986 29.0011 42.6994 29.5967 43.8576 30.0461C44.6347 30.3466 45.5658 30.5647 46.5797 30.6915C46.6451 30.7019 46.702 30.7082 46.7455 30.7118C47.3572 30.7815 47.9968 30.8168 48.6507 30.8168C50.4578 30.8168 52.1593 30.5435 53.4433 30.0461C54.6194 29.5899 55.3373 28.9817 55.5089 28.3083C55.6114 28.4789 55.6638 28.6495 55.6638 28.821C55.6647 29.0631 55.5608 29.3062 55.3561 29.5438ZM56.8878 33.8182C55.6369 32.0292 55.5698 30.9825 55.671 30.8041C55.7489 30.9553 55.8434 31.0974 55.9545 31.2327C55.9554 31.2354 55.9581 31.2381 55.9599 31.24C55.9728 31.2549 57.1404 32.6049 56.8878 33.8182ZM71.8336 42.1779C71.852 42.1807 71.8623 42.1924 71.8694 42.2006C71.8757 42.2096 71.8815 42.2237 71.8788 42.2427C71.8735 42.2766 71.8376 42.2911 71.8166 42.2888C71.7861 42.2838 71.766 42.2558 71.7696 42.2246C71.7749 42.1951 71.8009 42.1775 71.8246 42.1775C71.8282 42.177 71.8309 42.1779 71.8336 42.1779ZM71.1528 42.0367C71.1887 41.8087 71.3804 41.6439 71.6079 41.6439C71.6316 41.6439 71.6558 41.6457 71.6804 41.6498C71.7261 41.657 71.7696 41.6715 71.8099 41.6914C71.5492 41.6987 71.3347 41.8892 71.2939 42.1494C71.2747 42.2748 71.3002 42.3979 71.3571 42.5002C71.3105 42.4694 71.2697 42.4305 71.2361 42.3834C71.1627 42.2825 71.1345 42.1589 71.1528 42.0367ZM67.9949 39.859C68.0388 39.8925 68.0903 39.9097 68.1445 39.9079C68.1427 39.9065 68.3613 39.9079 68.8383 40.0681C68.4007 39.9912 68.0536 39.9595 68.0267 39.9568C68.0164 39.9559 68.0075 39.9568 67.9981 39.9572C67.8973 39.9541 67.8019 40.0147 67.7652 40.1156C67.7531 40.1464 67.7423 40.179 67.732 40.2097C67.7128 40.1876 67.6899 40.1686 67.6622 40.1545C67.6228 40.1333 67.1556 39.8975 66.2921 39.6739C66.3105 39.6305 66.3168 39.5807 66.3069 39.5318C66.2814 39.406 66.2711 39.2729 66.2756 39.1363C66.2756 39.1186 66.2747 39.1014 66.2711 39.0847C67.4302 39.4417 67.9873 39.8549 67.9949 39.859ZM65.5048 38.1841C65.5729 38.142 65.6405 38.1329 65.7225 38.1542C65.8985 38.1995 66.0933 38.3728 66.2657 38.5733C66.0794 38.5194 65.8828 38.4665 65.6692 38.4167C65.5361 38.3859 65.4031 38.3579 65.2683 38.3316C65.3413 38.2873 65.4197 38.2384 65.5048 38.1841ZM62.9031 37.7917C63.0281 37.5392 63.1875 37.3799 63.317 37.3754C63.4419 37.3708 63.5987 37.5156 63.7429 37.7682C63.8275 37.9144 63.9005 38.0374 63.9623 38.1406C63.544 38.0999 63.128 38.0768 62.715 38.0705C62.7871 37.9913 62.8498 37.8985 62.9031 37.7917ZM60.3955 37.8596C60.5809 37.5107 60.6992 37.4767 60.7287 37.4731C60.7726 37.4713 60.8994 37.5021 61.1609 37.8632C61.225 37.9506 61.2966 38.0284 61.3728 38.0954C60.9715 38.118 60.5778 38.151 60.1944 38.194C60.267 38.0918 60.3324 37.9773 60.3955 37.8596ZM58.0084 38.0388C58.1213 37.7474 58.2077 37.7152 58.2243 37.7116C58.3636 37.6813 58.7227 38.0415 58.9171 38.2339C58.9565 38.271 58.9995 38.3113 59.0439 38.3502C58.5924 38.423 58.1647 38.5049 57.7692 38.59C57.8543 38.4267 57.9323 38.2384 58.0084 38.0388ZM55.6571 38.5742L55.6625 38.5416C55.6844 38.3981 55.7113 38.3348 55.7256 38.3103C55.7771 38.3221 55.9303 38.3918 56.3074 38.7602C56.3571 38.8091 56.4158 38.8638 56.4789 38.9145C56.1677 39.005 55.8492 39.1064 55.5218 39.2164C55.585 39.0245 55.6222 38.7982 55.6571 38.5742ZM53.7676 39.8101C53.7783 39.6554 53.7908 39.4947 53.8222 39.3363C53.8473 39.2146 53.8822 39.177 53.893 39.1738C53.9145 39.1652 54.0443 39.1444 54.4792 39.492C54.4994 39.5083 54.5271 39.5314 54.5639 39.5572C54.3014 39.6554 54.0336 39.7576 53.7622 39.8654C53.7653 39.8463 53.7653 39.8282 53.7676 39.8101ZM53.145 40.6392C53.2552 40.6591 53.3725 40.6537 53.4809 40.5899C53.5445 40.5519 53.5929 40.5017 53.6301 40.4424C55.0959 39.854 56.4292 39.3893 57.6161 39.1236C60.5263 38.471 62.7594 38.4746 64.3359 38.6756C64.4854 38.6923 64.6019 38.7154 64.6068 38.7127C64.9463 38.7634 65.2513 38.8222 65.5245 38.8846C65.6392 38.9113 65.7484 38.938 65.8541 38.9666C65.8165 39.0082 65.7919 39.0625 65.7901 39.1236C65.7865 39.2752 65.7981 39.4227 65.8214 39.5662C65.6947 39.5386 65.5617 39.5137 65.4224 39.4884C65.4022 39.3693 65.3928 39.2481 65.3969 39.1254C65.4004 38.9905 65.2943 38.8779 65.1617 38.8742C65.0305 38.8684 64.9167 38.9761 64.9141 39.11C64.9105 39.2109 64.915 39.3096 64.9244 39.4083C64.7967 39.3915 64.6664 39.3752 64.528 39.3598C64.5199 39.2784 64.5168 39.1965 64.519 39.1132C64.5226 38.9779 64.4174 38.8656 64.2848 38.862C64.1518 38.8593 64.0398 38.9638 64.0353 39.0978C64.0336 39.1698 64.0353 39.2426 64.0398 39.3146C63.9077 39.3051 63.7693 39.2965 63.6287 39.2897C63.6157 39.1879 63.6085 39.0851 63.6121 38.981C63.6166 38.8466 63.5113 38.7335 63.3792 38.7299C63.2435 38.7267 63.1324 38.8317 63.1289 38.9666C63.1262 39.0693 63.1307 39.1707 63.141 39.2725C63.016 39.2707 62.8875 39.2707 62.7571 39.2716C62.7477 39.1815 62.7415 39.0892 62.7459 38.9969C62.7495 38.8616 62.6434 38.7489 62.5108 38.7448C62.3751 38.7407 62.2667 38.8475 62.2622 38.9806C62.2596 39.0824 62.264 39.1824 62.2734 39.282C62.1494 39.287 62.0231 39.2915 61.8945 39.2992C61.8874 39.2254 61.8842 39.1503 61.8874 39.0743C61.8919 38.9399 61.7866 38.8267 61.6531 38.8231C61.5219 38.8177 61.4091 38.9245 61.4046 39.0589C61.4019 39.1498 61.4046 39.2413 61.4126 39.3322C61.251 39.3444 61.0861 39.3594 60.9218 39.3752C60.907 39.2992 60.8945 39.2214 60.8895 39.1426C60.8806 39.0077 60.7664 38.9064 60.6316 38.9159C60.4994 38.9249 60.3987 39.0408 60.4076 39.1756C60.4148 39.2607 60.4242 39.3445 60.4399 39.4277C60.2334 39.4522 60.0269 39.4784 59.8196 39.5078C59.8012 39.4227 59.7891 39.3372 59.782 39.2499C59.773 39.115 59.6579 39.0141 59.524 39.0231C59.391 39.0326 59.2911 39.1489 59.3001 39.2838C59.3072 39.3843 59.322 39.4825 59.3413 39.5802C59.1451 39.611 58.9467 39.6459 58.7492 39.6816C58.7326 39.602 58.7205 39.521 58.7151 39.4372C58.7057 39.3019 58.5911 39.2014 58.4581 39.21C58.325 39.2195 58.2247 39.3354 58.2332 39.4703C58.2404 39.573 58.2552 39.6726 58.2753 39.7703C58.0836 39.8083 57.8924 39.8491 57.698 39.8916C57.6631 39.7984 57.6367 39.7011 57.6183 39.6015C57.5919 39.4694 57.4678 39.382 57.3357 39.4065C57.2045 39.4318 57.1198 39.559 57.1422 39.6916C57.1624 39.7957 57.1893 39.8984 57.2237 39.9984C57.0025 40.05 56.7804 40.1048 56.5555 40.1622C56.5278 40.0826 56.5058 40.0016 56.4883 39.9169C56.4628 39.7839 56.3361 39.6988 56.2048 39.7241C56.0736 39.7504 55.989 39.8789 56.0141 40.0111C56.0324 40.1043 56.0579 40.1957 56.0866 40.2849C55.8689 40.3437 55.6477 40.4062 55.4251 40.4695C55.3978 40.3921 55.3718 40.3116 55.3526 40.2288C55.3248 40.0971 55.194 40.0138 55.0637 40.0446C54.9342 40.0735 54.8518 40.2048 54.8827 40.336C54.9029 40.4301 54.9298 40.5207 54.9607 40.6089C54.7439 40.675 54.5249 40.7438 54.3036 40.8153C54.2759 40.7306 54.2535 40.6438 54.2369 40.5537C54.2136 40.4211 54.09 40.3333 53.957 40.3564C53.8258 40.3804 53.7384 40.5071 53.7617 40.6397C53.7819 40.7519 53.8097 40.8596 53.8455 40.9664C53.6269 41.0397 53.4057 41.1158 53.1835 41.1941C53.1598 41.0968 53.1432 40.9954 53.1365 40.8909C53.1293 40.804 53.0787 40.7316 53.0084 40.6935C53.0559 40.6763 53.1007 40.6578 53.145 40.6392ZM52.1776 40.2908C52.187 40.2337 52.1955 40.1926 52.2049 40.164C52.2618 40.193 52.3429 40.2432 52.4128 40.2862C52.4513 40.3107 52.4943 40.336 52.5399 40.3641C52.4065 40.4197 52.2708 40.4763 52.1369 40.5338C52.1508 40.4546 52.1642 40.374 52.1776 40.2908ZM52.6676 40.8379C52.6586 40.866 52.6546 40.8958 52.6577 40.9275C52.6676 41.0755 52.6936 41.2199 52.7298 41.3579C52.5153 41.4366 52.2999 41.5177 52.0818 41.5991C52.0818 41.5991 52.0818 41.5978 52.0813 41.5969C52.0451 41.4747 52.0213 41.3439 52.0119 41.2086C52.0092 41.1791 52.0021 41.1511 51.99 41.1248C52.2184 41.0275 52.4446 40.9311 52.6676 40.8379ZM51.307 41.4213C51.3818 41.4452 51.4655 41.4579 51.5542 41.4466C51.569 41.5475 51.5914 41.6457 51.6196 41.7408C51.6232 41.7512 51.6285 41.7625 51.6317 41.7724L51.2398 41.9263C51.1623 41.9566 51.0835 41.9879 51.0047 42.0186C50.9832 41.9272 50.9684 41.8326 50.9612 41.7349C50.9576 41.6819 50.937 41.6335 50.9048 41.5955C51.04 41.5376 51.1731 41.4796 51.307 41.4213ZM50.5313 40.9732C50.5953 41.0004 50.6907 41.0574 50.7857 41.1167C50.6831 41.1619 50.5805 41.2063 50.4771 41.2534C50.4941 41.1411 50.5129 41.037 50.5313 40.9732ZM48.953 41.6756C48.987 41.6643 49.0703 41.6887 49.1895 41.7987C49.1953 41.8046 49.202 41.8091 49.2087 41.815C49.0641 41.8806 48.9189 41.9444 48.772 42.0096C48.8321 41.7779 48.9127 41.6896 48.953 41.6756ZM47.4974 42.5364C47.5095 42.5355 47.5292 42.5423 47.5521 42.5527C47.5203 42.5676 47.4867 42.5807 47.4531 42.597C47.4808 42.55 47.4974 42.5364 47.4974 42.5364ZM47.2148 43.2351C47.5064 43.1066 47.7961 42.9781 48.0823 42.8509C48.1809 42.8758 48.2758 42.8708 48.3627 42.8351C48.4648 42.7916 48.5383 42.7156 48.5938 42.6228C48.7138 42.5708 48.8312 42.5174 48.9494 42.4644C49.2674 42.3232 49.5822 42.182 49.8922 42.0444C49.9369 42.0377 49.9804 42.0277 50.0238 42.0128C50.0959 41.9861 50.1591 41.948 50.2146 41.9014C50.3042 41.8616 50.3933 41.8222 50.4825 41.7829C50.4932 41.9245 50.5169 42.0621 50.5523 42.1951C49.4716 42.6151 48.2839 43.0613 47.0822 43.4229C47.1378 43.3763 47.1799 43.3116 47.2148 43.2351ZM46.56 43.5669C46.5981 43.5469 46.6254 43.5184 46.6474 43.4849C46.663 43.4773 46.6787 43.4718 46.6939 43.4637C46.7329 43.4818 46.775 43.4954 46.8193 43.5003C46.7208 43.5288 46.6232 43.556 46.5247 43.5845C46.5372 43.5786 46.5484 43.5732 46.56 43.5669ZM41.3939 40.9157C41.8144 41.1601 42.3152 41.5095 42.7397 41.9725L42.8087 42.049C43.3981 42.6948 44.078 43.437 44.8774 43.7221C44.6821 43.8031 44.4739 43.8687 44.2526 43.9208C44.2446 43.8737 44.2249 43.828 44.1886 43.7904C43.9208 43.5053 43.6605 43.1749 43.4106 42.855L43.3376 42.7608C42.9896 42.3178 42.5579 41.9218 42.0532 41.5824C41.9425 41.5082 41.7925 41.5389 41.7186 41.6512C41.6447 41.7634 41.6756 41.9146 41.7858 41.9892C42.248 42.2997 42.6416 42.6604 42.9587 43.0645L43.0313 43.1568C43.2588 43.4478 43.4939 43.7456 43.7407 44.0185C43.7134 44.0226 43.6838 44.0262 43.657 44.0289C43.6507 44.0208 43.6471 44.0126 43.6408 44.0049C43.5463 43.8873 43.4532 43.7682 43.3614 43.6506L43.2897 43.5596C42.944 43.1175 42.5118 42.7215 42.0061 42.382C41.8951 42.3069 41.7455 42.3372 41.6711 42.449C41.5977 42.5613 41.6277 42.7129 41.7387 42.7875C42.2018 43.0989 42.5964 43.4601 42.9108 43.8624L42.9825 43.9529C43.0147 43.995 43.0492 44.038 43.0823 44.0796C43.0582 44.081 43.034 44.0814 43.0098 44.0828C43.0085 44.0814 43.0076 44.0805 43.0067 44.0792C42.7057 43.7474 42.3532 43.4456 41.9591 43.1813C41.8476 43.1071 41.698 43.1369 41.6245 43.2492C41.5502 43.3618 41.5807 43.513 41.6908 43.5877C41.9197 43.7406 42.1315 43.9072 42.3263 44.085C42.0155 44.0755 41.7029 44.0506 41.3984 44.0135C41.3491 44.0027 41.2989 43.9882 41.251 43.9751C41.3876 43.6492 41.4897 43.2867 41.5493 42.9116C41.6684 42.1617 41.603 41.4529 41.3939 40.9157ZM43.5804 49.5466C43.5732 49.5543 43.5687 49.5629 43.5629 49.5715C43.3654 49.666 43.1603 49.7729 42.9426 49.886C42.3169 50.2127 41.6071 50.5816 40.7705 50.8495C39.6168 51.2183 39.185 51.0943 39.1066 51.0269C39.116 51.0102 39.1398 50.9794 39.1926 50.9445C40.3172 50.2299 40.4278 49.042 40.3687 48.3029C40.5604 48.441 40.7503 48.5641 40.9411 48.6609C40.9733 48.6763 41.0065 48.6912 41.0378 48.7071C40.8959 48.7704 40.7463 48.8293 40.5895 48.8818C40.4637 48.9252 40.3951 49.0628 40.4377 49.1913C40.4708 49.2936 40.5653 49.3574 40.667 49.3574C40.6925 49.3574 40.7181 49.3533 40.7445 49.3452C41.0611 49.2384 41.3554 49.1098 41.6245 48.965C41.6693 48.9822 41.7132 49.0003 41.7585 49.0175C41.341 49.2492 40.8829 49.4542 40.3902 49.6303C40.2644 49.6755 40.1976 49.8145 40.2424 49.9417C40.2778 50.0421 40.3705 50.1041 40.4708 50.1041C40.4977 50.1041 40.5241 50.0996 40.5506 50.091C41.1995 49.8597 41.7956 49.5773 42.3214 49.2524C42.3375 49.2429 42.351 49.232 42.3631 49.2198C42.445 49.2447 42.5274 49.2669 42.6103 49.2895C41.8315 49.7584 40.968 50.1752 40.0373 50.53C39.9123 50.5771 39.8501 50.7178 39.8976 50.8432C39.9338 50.9418 40.0257 51.002 40.1237 51.002C40.1515 51.002 40.1806 50.997 40.2079 50.9866C41.3339 50.558 42.3658 50.0403 43.2772 49.4479C43.3887 49.4719 43.5042 49.4936 43.6207 49.514C43.6055 49.5226 43.5925 49.5344 43.5804 49.5466ZM43.3269 47.768L43.5356 47.6187L43.6816 47.8327L43.4729 47.9821L43.3269 47.768ZM46.6922 50.7269C46.6339 50.974 46.5663 51.2016 46.4996 51.4007C45.6889 50.9545 44.9253 50.4209 44.2271 49.8082C44.4004 49.7398 44.5648 49.6882 44.7193 49.662C45.2558 49.7136 45.8193 49.7407 46.4091 49.7407C46.5426 49.7407 46.6783 49.7385 46.8122 49.7357C46.7947 50.1277 46.7535 50.4671 46.6922 50.7269ZM47.2896 50.3562C47.3335 50.439 47.4159 50.4852 47.5037 50.4852C47.5418 50.4852 47.5812 50.4761 47.617 50.4571C47.6398 50.4454 48.1679 50.1584 48.7161 49.6212C48.7537 49.6181 48.79 49.614 48.8271 49.6108C48.0478 50.4417 47.213 50.8984 47.2045 50.9029C47.1754 50.9183 47.1512 50.9396 47.132 50.9631C47.1414 50.9224 47.1526 50.8816 47.1615 50.8404C47.2327 50.5386 47.2789 50.1625 47.2977 49.7208C47.4938 49.7127 47.694 49.7018 47.8956 49.6887C47.6076 49.9073 47.394 50.024 47.3904 50.0258C47.2721 50.0901 47.2274 50.2372 47.2896 50.3562ZM45.426 49.2221C45.581 49.2257 45.7391 49.2289 45.9021 49.2289C47.7415 49.2289 50.1869 48.9786 53.3994 48.2445C55.6714 47.7259 59.6973 46.2383 60.5209 45.931C60.5245 45.9858 60.529 46.0437 60.5303 46.1039C59.8061 46.3918 56.8417 47.5304 53.3071 48.3518C50.9693 48.8935 48.0747 49.3628 45.426 49.2221ZM46.8726 51.8017C46.9398 51.617 47.0124 51.3989 47.0805 51.1554C47.0845 51.1826 47.0921 51.2088 47.1051 51.2333C47.1485 51.317 47.2318 51.3627 47.3187 51.3627C47.3572 51.3627 47.3958 51.3537 47.4325 51.3346C47.4795 51.3084 48.5911 50.7029 49.5025 49.576C49.5137 49.5624 49.5231 49.547 49.5303 49.5307C49.5581 49.5276 49.5863 49.523 49.6145 49.5203C48.6968 50.668 47.548 51.4224 46.8726 51.8017ZM59.8809 50.73C57.7446 52.2027 55.2433 52.9811 52.647 52.9811C52.6461 52.9811 52.6461 52.9811 52.6452 52.9811C50.8896 52.9811 49.193 52.6312 47.5973 51.9406C48.3905 51.4396 49.4595 50.6151 50.2876 49.4343C50.289 49.4325 50.2899 49.4294 50.2912 49.4271C51.2891 49.2782 52.3344 49.0782 53.4231 48.8252C56.7589 48.0495 59.593 46.9937 60.5429 46.6226C60.5438 46.9525 60.529 47.2973 60.4824 47.5915C60.344 48.4754 60.1008 49.1456 60.0995 49.1524C60.0637 49.2497 60.0932 49.3592 60.172 49.4257C60.2168 49.4624 60.271 49.4809 60.3261 49.4809C60.3691 49.4809 60.4117 49.4696 60.4511 49.4452C60.5492 49.385 62.7576 47.9961 63.9081 45.4115C64.0358 45.2146 64.2467 45.173 64.4366 45.1839C63.4666 47.4281 61.8963 49.3425 59.8809 50.73ZM74.163 42.5952C73.7012 42.926 72.7938 43.4193 71.7261 43.9036C71.7243 43.9036 71.7234 43.9036 71.7225 43.9036C71.6804 43.9117 71.6428 43.9303 71.6115 43.9547C71.1166 44.1756 70.5908 44.3937 70.0596 44.5915C70.043 44.5946 70.0274 44.6005 70.0117 44.6073C70.0005 44.6127 69.987 44.6168 69.9741 44.6227C69.9454 44.6331 69.9163 44.6444 69.8867 44.6548C69.3287 44.844 67.9743 45.0246 67.2398 44.4756C67.1323 44.3955 66.9819 44.4186 66.9012 44.5263C66.8215 44.6345 66.8444 44.7874 66.9519 44.8684C67.1409 45.0096 67.3567 45.1119 67.5869 45.1834C67.0096 45.245 66.3665 45.2585 65.8523 45.1296C65.7131 45.0956 65.6329 45.0273 65.5917 44.9128C65.3346 44.1995 66.5152 42.168 67.3182 41.0551C67.333 41.0348 67.3419 41.014 67.3496 40.9922C67.445 40.928 67.4853 40.8022 67.4378 40.6922C67.3854 40.5686 67.2425 40.5125 67.1211 40.5655C67.0441 40.5994 66.4722 40.89 65.6933 42.2915C65.348 42.1413 63.0603 41.4335 55.2271 44.3539C54.1482 44.7562 52.8893 45.1739 51.5197 45.5337C51.5497 45.5097 51.5761 45.4803 51.5923 45.4441L52.0325 44.505C52.0889 44.3833 52.0383 44.2389 51.9183 44.1805L50.9988 43.7343C50.9402 43.7062 50.8757 43.7031 50.8143 43.7248C50.753 43.7465 50.7037 43.7909 50.6759 43.8506L50.2357 44.7883C50.1783 44.9105 50.2294 45.0549 50.3499 45.1137L51.2689 45.5599C51.2913 45.5704 51.3146 45.5762 51.3383 45.5799C50.7879 45.7211 50.2227 45.8532 49.6427 45.9695L50.1156 45.2033C50.186 45.0893 50.1515 44.9399 50.0404 44.8684L49.202 44.3321C49.1483 44.2968 49.082 44.2851 49.0193 44.2996C48.9557 44.3145 48.9024 44.3534 48.8683 44.4086L48.339 45.2658C48.2691 45.3794 48.3027 45.5287 48.4146 45.6007L49.1402 46.0659C48.6646 46.1533 48.1804 46.2311 47.6931 46.2945L48.1885 45.66C48.2704 45.5554 48.2539 45.4034 48.15 45.3183L47.3984 44.7064C47.3487 44.6657 47.2838 44.6467 47.2211 44.6548C47.1566 44.6621 47.0979 44.6951 47.0576 44.7453L46.4566 45.5142C46.3742 45.6188 46.3912 45.7708 46.4942 45.8555L47.1181 46.3632C46.6626 46.413 46.2026 46.4488 45.7431 46.4728L46.2895 45.9062C46.3827 45.8102 46.3804 45.6568 46.2877 45.5622L45.6428 44.9146C45.5967 44.8684 45.5322 44.8435 45.4708 44.844C45.4059 44.8444 45.345 44.8711 45.2997 44.9169L44.6629 45.5762C44.5702 45.6722 44.5715 45.8251 44.666 45.9202L45.233 46.4927C44.7677 46.5044 44.301 46.5022 43.837 46.4827L44.481 45.9315C44.5827 45.846 44.5961 45.6935 44.5115 45.5903L43.9499 44.9033C43.9082 44.853 43.8491 44.8209 43.7851 44.8159C43.721 44.8091 43.657 44.8304 43.6077 44.873L42.9328 45.4482C42.8947 45.4817 42.8687 45.5246 42.8557 45.5708C42.8504 45.5568 42.8432 45.5432 42.8338 45.5301L42.4123 44.9173C42.3747 44.8639 42.3183 44.8272 42.2547 44.8159C42.1906 44.8046 42.1262 44.8196 42.0729 44.8576L41.4709 45.2907C41.4472 45.307 41.4302 45.3269 41.4149 45.3491L41.1803 44.9571C41.1476 44.9024 41.0938 44.8621 41.0307 44.8472C40.9675 44.8322 40.9021 44.8422 40.847 44.8766L40.3983 45.1576L40.2236 44.8322C40.1932 44.7752 40.1412 44.7322 40.0799 44.7141C40.0171 44.6956 39.9513 44.7037 39.8949 44.7349L39.4967 44.9562C39.3807 45.0223 39.3382 45.1689 39.4009 45.2861L39.6168 45.6916C39.6194 45.6971 39.6239 45.7011 39.6262 45.7061C39.2535 45.5645 39.0645 45.4595 39.0601 45.4568C38.9432 45.3907 38.7954 45.4319 38.7309 45.5495C38.6664 45.6672 38.7067 45.8156 38.8231 45.8813C38.85 45.8967 39.1855 46.0831 39.8344 46.2999L39.61 46.4058C39.4896 46.4628 39.4376 46.6067 39.4927 46.7285L39.5984 46.9638C39.6262 47.0231 39.675 47.0683 39.7359 47.0914C39.7632 47.1009 39.791 47.1054 39.8192 47.1054C39.855 47.1054 39.89 47.0968 39.9218 47.0819L40.1524 46.9724C40.2724 46.9154 40.3244 46.7719 40.2684 46.6497L40.1623 46.4153C40.1587 46.4085 40.1551 46.4044 40.1529 46.3985C40.6254 46.5388 41.2259 46.6818 41.9546 46.7918L41.4978 47.0593C41.3831 47.1263 41.3428 47.2747 41.4096 47.3901L41.6752 47.8671C41.707 47.9241 41.7594 47.9658 41.8221 47.9825C41.8435 47.9884 41.8642 47.9911 41.8856 47.9911C41.9277 47.9911 41.9698 47.9812 42.007 47.959L42.4746 47.6847C42.5888 47.6182 42.6296 47.4698 42.5633 47.3544L42.2963 46.8778C42.2878 46.8629 42.2784 46.8497 42.2681 46.8366C42.488 46.8651 42.72 46.8918 42.9614 46.9136C43.5307 46.9642 44.103 46.9878 44.6745 46.9878C48.6529 46.9878 52.6197 45.8451 55.3942 44.8105C57.7245 43.9411 61.0257 42.8591 63.5118 42.6323C64.7739 42.5169 65.3243 42.6717 65.4658 42.7233C65.3749 42.9039 65.2822 43.1016 65.1859 43.3139L65.065 43.2474C65.009 43.2161 64.9436 43.2089 64.8805 43.227C64.8191 43.2451 64.7667 43.2876 64.738 43.3447L64.5791 43.6384C64.515 43.7569 64.5589 43.9031 64.6744 43.9683L64.889 44.0869C64.8209 44.3317 64.7891 44.5525 64.7963 44.7521C64.7385 44.7349 64.6771 44.7209 64.618 44.7114C64.3766 44.6725 64.1563 44.6928 63.9682 44.7643C63.9543 44.7548 63.9377 44.7462 63.9216 44.7394C63.7975 44.6906 63.6564 44.7512 63.6085 44.8775C63.5691 44.9798 63.527 45.0775 63.4845 45.1753C63.4522 45.2305 63.4222 45.2911 63.398 45.3545C63.3962 45.3617 63.3953 45.3681 63.3935 45.3744C62.6411 46.9552 61.4606 48.0608 60.765 48.6147C60.8331 48.3504 60.9043 48.026 60.9612 47.6653C61.0266 47.2494 61.0355 46.7547 61.0261 46.3261C61.027 46.3225 61.0288 46.3189 61.0288 46.3157C61.0333 46.3234 61.036 46.3298 61.0391 46.337C61.0861 46.4031 61.1614 46.4402 61.2366 46.4402C61.2845 46.4402 61.3338 46.4257 61.3759 46.3954C61.3961 46.3813 61.8493 46.0523 62.1001 45.5002C62.1552 45.3776 62.1028 45.2323 61.981 45.1762C61.8601 45.1201 61.7167 45.1735 61.6608 45.2966C61.4655 45.7256 61.1009 45.9935 61.0955 45.9962C61.0597 46.0234 61.0333 46.0582 61.0158 46.0971C60.9975 45.6645 60.9643 45.3418 60.9607 45.3147C60.9581 45.2839 60.9486 45.2531 60.9343 45.2278C60.9563 45.2332 60.9773 45.2368 60.9993 45.2368C61.0239 45.2368 61.0458 45.2332 61.0673 45.2273C61.1287 45.2092 61.1811 45.1658 61.2124 45.1087L61.5107 44.5512C61.5748 44.4331 61.5309 44.2855 61.4162 44.2213L60.8685 43.9176C60.8125 43.8859 60.7462 43.8787 60.684 43.8968C60.6226 43.9153 60.5702 43.9574 60.5406 44.0144L60.2406 44.5725C60.1756 44.6901 60.2186 44.8377 60.336 44.9024L60.6902 45.1006C60.5599 45.1164 60.4654 45.2359 60.4784 45.369C60.4784 45.3699 60.482 45.3898 60.4847 45.4242C60.1617 45.5455 55.7095 47.2168 53.2928 47.7685C50.7032 48.3609 48.6377 48.6261 47.0155 48.7066C47.0173 48.7048 47.02 48.703 47.0218 48.7007L47.6174 48.0798C47.6712 48.0232 47.6918 47.9468 47.6824 47.8744C47.6918 47.8857 47.7012 47.8965 47.7124 47.9056L48.3614 48.4627C48.4052 48.4998 48.4608 48.5206 48.5177 48.5206C48.5257 48.5206 48.5315 48.5206 48.5387 48.5197C48.6032 48.5134 48.6619 48.4826 48.7031 48.4328L49.2504 47.7671C49.2813 47.73 49.2983 47.6861 49.305 47.6422C49.3202 47.6834 49.3471 47.7205 49.3847 47.7481L50.0673 48.2622C50.1103 48.293 50.1604 48.3097 50.2115 48.3097C50.2231 48.3097 50.237 48.3088 50.2482 48.3065C50.3132 48.297 50.3696 48.2617 50.4068 48.2088L50.9115 47.5091C50.9263 47.4888 50.9366 47.4657 50.9429 47.4426C50.9576 47.4607 50.9742 47.4775 50.9948 47.491L51.7047 47.9649C51.7441 47.9911 51.7902 48.0056 51.8377 48.0056C51.8543 48.0056 51.8704 48.0033 51.8865 47.9997C51.9506 47.9866 52.0056 47.9486 52.0397 47.8938L52.5055 47.1679C52.5189 47.1466 52.5274 47.1245 52.5341 47.1018C52.5485 47.1181 52.5655 47.1331 52.5852 47.1457L53.3174 47.5847C53.3551 47.6069 53.3981 47.6177 53.4397 47.6177C53.4608 47.6177 53.4818 47.615 53.502 47.6105C53.5642 47.5933 53.6171 47.5526 53.6489 47.4965L54.0788 46.7484C54.0945 46.7212 54.1048 46.6927 54.1084 46.6637C54.1267 46.6841 54.1478 46.7022 54.1738 46.7153L54.9222 47.1236C54.9562 47.143 54.9974 47.153 55.0377 47.153C55.0605 47.153 55.0843 47.1493 55.1058 47.143C55.1689 47.124 55.2204 47.0801 55.25 47.0231L55.6513 46.2587C55.667 46.2297 55.675 46.1985 55.6786 46.1682C55.6988 46.1908 55.7225 46.2107 55.7494 46.2257L56.5045 46.6212C56.5394 46.6393 56.577 46.6493 56.6164 46.6493C56.6411 46.6493 56.6661 46.6452 56.6899 46.6375C56.7521 46.6176 56.8018 46.5737 56.8305 46.5158L57.2206 45.7441C57.2363 45.7116 57.2443 45.6776 57.2452 45.6423C57.2663 45.669 57.2923 45.6898 57.3232 45.7066L58.0814 46.0953C58.1154 46.1125 58.1531 46.1211 58.1907 46.1211C58.2171 46.1211 58.2404 46.1175 58.2668 46.1098C58.3273 46.089 58.3779 46.0446 58.4066 45.9872L58.7895 45.2128C58.7966 45.1983 58.8016 45.1834 58.8061 45.1667C58.8208 45.2336 58.8647 45.2934 58.9283 45.3269L59.481 45.6165C59.5159 45.6355 59.5544 45.6446 59.5921 45.6446C59.6185 45.6446 59.6427 45.641 59.6664 45.6333C59.7278 45.6138 59.7793 45.569 59.8079 45.5111L60.0923 44.9449C60.1528 44.825 60.1053 44.6788 59.9875 44.6168L59.4358 44.3276C59.378 44.2982 59.3126 44.2923 59.2503 44.3122C59.1881 44.3321 59.1384 44.3765 59.1097 44.4344L58.8253 45.001C58.8164 45.0151 58.8105 45.0304 58.8069 45.0472C58.7913 44.9811 58.7483 44.9196 58.6829 44.887L57.9247 44.4982C57.8669 44.4693 57.8015 44.4647 57.7392 44.4851C57.6779 44.5055 57.6273 44.5498 57.5995 44.6078L57.217 45.3825C57.2013 45.4129 57.1933 45.4477 57.1915 45.4812C57.1713 45.4554 57.1458 45.4341 57.1154 45.4183L56.3611 45.0232C56.3043 44.9933 56.238 44.9879 56.1766 45.0078C56.1144 45.0277 56.0647 45.0712 56.0351 45.1291L55.6459 45.9003C55.632 45.9288 55.6231 45.9591 55.6204 45.9881C55.6011 45.9659 55.5792 45.9469 55.5532 45.9324L54.8044 45.5251C54.7484 45.4943 54.683 45.4866 54.6216 45.5061C54.5585 45.5246 54.5079 45.5681 54.4783 45.6256L54.0757 46.3895C54.0631 46.4148 54.0555 46.4406 54.0511 46.4664C54.0354 46.4483 54.017 46.4316 53.9951 46.4194L53.2637 45.9813C53.2077 45.9482 53.1423 45.9383 53.0792 45.9541C53.0178 45.9704 52.9636 46.0116 52.9314 46.0677L52.501 46.8154C52.4911 46.833 52.484 46.8516 52.4786 46.8706C52.4656 46.857 52.4508 46.8439 52.4351 46.8335L51.7257 46.3605C51.6724 46.3248 51.6057 46.3126 51.5434 46.3252C51.4803 46.3379 51.4248 46.3764 51.3898 46.4307L50.924 47.1566C50.9142 47.1742 50.9043 47.1928 50.899 47.2113C50.8864 47.1969 50.8739 47.1833 50.8578 47.1715L50.1739 46.6592C50.1219 46.6198 50.057 46.604 49.9943 46.6135C49.9298 46.623 49.8729 46.6592 49.8353 46.7113L49.331 47.41C49.3059 47.4449 49.2929 47.4851 49.288 47.5263C49.2741 47.4892 49.2517 47.4548 49.219 47.4263L48.5701 46.8701C48.5226 46.8271 48.4572 46.8068 48.3936 46.8131C48.3287 46.819 48.2695 46.8497 48.2283 46.8995L47.6815 47.5643C47.6349 47.6205 47.6183 47.6897 47.6286 47.758C47.6242 47.7499 47.6192 47.7427 47.613 47.7363L47.0066 47.1317C46.96 47.0855 46.8991 47.0602 46.8337 47.0616C46.7692 47.062 46.7092 47.0896 46.6635 47.1362L46.0683 47.7562C45.976 47.8522 45.9783 48.006 46.0723 48.1002L46.6787 48.7053C46.6859 48.7111 46.6913 48.7157 46.6984 48.7211C45.3454 48.7713 44.3189 48.6908 43.5692 48.5731C43.5387 48.5681 43.5096 48.5636 43.4805 48.5586C43.5065 48.5509 43.5298 48.5401 43.5526 48.5238L44.1572 48.0925C44.2647 48.0142 44.2916 47.8639 44.2159 47.754L43.7954 47.1394C43.7586 47.086 43.7022 47.0498 43.6373 47.0376C43.575 47.0267 43.5092 47.0416 43.4568 47.0792L42.8535 47.5109C42.7442 47.5888 42.7191 47.739 42.7939 47.8486L43.214 48.4631C43.2301 48.4867 43.2499 48.5057 43.2727 48.522C41.6931 48.2273 41.1288 47.7291 41.1234 47.725C41.1176 47.7196 41.1117 47.715 41.1046 47.7096C41.1037 47.7092 41.0871 47.696 41.0558 47.6712C40.951 47.5888 40.7987 47.6078 40.7172 47.715C40.6697 47.7771 40.6558 47.8544 40.6737 47.925C40.5282 47.82 40.3795 47.7033 40.2263 47.5788C40.2003 47.5408 40.1636 47.5128 40.1233 47.4942C40.0382 47.4241 39.9527 47.353 39.8667 47.2801C38.5759 46.2021 36.9712 44.8607 34.3006 45.6002C33.8272 45.7315 33.3457 45.7717 32.9749 45.7586C33.6203 45.5794 35.0118 45.2201 35.6518 45.2572L35.6984 45.2599C36.4459 45.3038 36.4459 45.3038 37.1602 45.5197C37.2874 45.5586 37.4218 45.4853 37.4612 45.3558C37.4988 45.2278 37.4267 45.0906 37.299 45.0522C36.5448 44.8236 36.5148 44.8182 35.7257 44.7734L35.6796 44.7707C35.1264 44.7394 34.134 44.9544 33.4035 45.14C33.5894 44.9902 33.7855 44.8137 33.9781 44.6064C34.1756 44.3937 34.3794 44.1389 34.5657 43.8366L37.3385 44.9476C37.3671 44.9585 37.3976 44.9648 37.4267 44.9648C37.5225 44.9648 37.6139 44.9069 37.6515 44.811C37.7003 44.6856 37.6408 44.543 37.5154 44.4942L34.8022 43.4062C34.9392 43.1211 35.057 42.8038 35.1426 42.4522C35.2707 42.6577 35.4395 42.8903 35.6634 43.1279C36.3227 43.8312 37.3909 44.4032 37.4365 44.4281C37.4724 44.4471 37.5109 44.4561 37.549 44.4561C37.6349 44.4561 37.72 44.4091 37.763 44.3263C37.8257 44.2059 37.7801 44.0588 37.6623 43.9963C37.652 43.9909 36.6165 43.437 36.0132 42.7934C35.5134 42.2594 35.3159 41.7584 35.2693 41.6204C35.2792 41.471 35.2836 41.3163 35.281 41.1583C35.3611 41.3013 35.4391 41.4317 35.5143 41.5412C36.6447 43.1872 37.5879 43.7877 37.6282 43.8126C37.6667 43.8384 37.7115 43.8497 37.7545 43.8497C37.8351 43.8497 37.9131 43.8081 37.9592 43.7334C38.0295 43.6194 37.995 43.4696 37.8826 43.3985C37.8732 43.3926 36.9775 42.8165 35.9107 41.2624C35.6298 40.8533 35.2984 40.1224 34.9898 39.3558C34.8515 38.8874 34.6634 38.3891 34.4269 37.8641C34.2867 37.4695 34.1685 37.1237 34.0856 36.8784C34.9348 37.8306 35.8798 39.2109 36.526 41.0864C37.0639 42.6477 37.5507 43.1496 38.4357 43.6827C38.9781 44.009 40.0799 44.3439 41.3092 44.4969C41.7992 44.61 42.3192 44.6607 42.862 44.6607C45.6052 44.6607 48.8871 43.3745 51.4158 42.3843L51.8319 42.2214C55.5393 40.7741 58.8231 39.9794 61.8708 39.7938C65.4282 39.5775 67.4221 40.5813 67.4418 40.5917C67.518 40.6311 67.6035 40.6252 67.6729 40.5849C67.6984 40.6668 67.7647 40.732 67.853 40.7501C67.8686 40.7542 67.8852 40.7564 67.9018 40.7564C68.0137 40.7564 68.1154 40.6772 68.1369 40.5618C68.1441 40.5302 68.1526 40.4971 68.1615 40.4654C68.5342 40.5093 69.4124 40.6333 69.9633 40.8818C70.2486 41.0103 70.6141 41.1628 71.018 41.305C71.01 41.3312 71.0041 41.3556 70.9979 41.3823C70.829 41.5249 70.7117 41.7286 70.675 41.9634C70.6347 42.2151 70.6951 42.4662 70.8438 42.6721C70.9916 42.8785 71.2111 43.0143 71.4596 43.0541C71.5084 43.0623 71.5586 43.0654 71.6074 43.0654C72.0745 43.0654 72.4664 42.7269 72.5399 42.2603C72.5511 42.1816 72.552 42.1033 72.5462 42.0272C72.625 41.9824 72.6774 41.8951 72.6702 41.7969C72.6684 41.7684 72.6675 41.7381 72.6684 41.7086C72.8301 41.7267 72.9922 41.7381 73.1467 41.7381C73.3304 41.7381 73.5082 41.7236 73.6761 41.6914C73.6873 41.6887 73.7008 41.6842 73.7128 41.6801C73.746 41.677 73.7791 41.6742 73.8145 41.6706C74.3824 41.6186 74.6596 41.624 74.7461 41.9064C74.7689 41.977 74.8155 42.1254 74.163 42.5952ZM51.4928 44.515L51.2595 45.0137L50.7763 44.7784L51.0096 44.2801L51.4928 44.515ZM49.5796 45.1513L49.3068 45.5939L48.8768 45.3187L49.15 44.8757L49.5796 45.1513ZM47.6618 45.5473L47.3604 45.9338L46.9846 45.6274L47.2869 45.2413L47.6618 45.5473ZM45.4771 46.0501L45.1752 45.7459L45.4749 45.435L45.7772 45.7387L45.4771 46.0501ZM41.9457 45.5486L42.1544 45.3984L42.3008 45.612L42.0921 45.7618L41.9457 45.5486ZM42.0249 47.3851L41.9761 47.4141L41.9483 47.363L41.9963 47.3349L42.0249 47.3851ZM42.1732 46.3026L42.7756 45.8686C42.8239 45.8342 42.8548 45.7849 42.8678 45.7315C42.8772 45.7518 42.8875 45.7726 42.9028 45.7898L43.4523 46.4614C43.3157 46.4533 43.1791 46.4433 43.0438 46.4307C42.7196 46.4026 42.4164 46.3664 42.1315 46.3266C42.1454 46.3193 42.1597 46.3121 42.1732 46.3026ZM43.4268 45.6654L43.7331 45.4056L43.9857 45.7161L43.6803 45.9768L43.4268 45.6654ZM40.9227 46.0469L41.3809 45.7595C41.4105 45.7401 41.4346 45.7161 41.4535 45.6889L41.835 46.2442C41.8467 46.2596 41.8597 46.2741 41.8749 46.2881C41.492 46.2257 41.1471 46.1537 40.8417 46.0799C40.8703 46.0727 40.8972 46.0632 40.9227 46.0469ZM40.8448 45.4518L40.8932 45.4219L40.9223 45.4717L40.8748 45.502L40.8448 45.4518ZM40.6437 46.0288C40.3593 45.955 40.1139 45.879 39.9065 45.8084C39.9204 45.8034 39.9343 45.7984 39.9464 45.7912L40.345 45.5681C40.3463 45.5676 40.3477 45.5663 40.3486 45.5658L40.5891 45.9673C40.603 45.9908 40.6218 46.0121 40.6437 46.0288ZM60.7802 44.5919L60.8483 44.4634L60.9697 44.5313L60.9016 44.6607L60.7802 44.5919ZM46.8458 48.1844L46.582 47.9223L46.8413 47.6512L47.1033 47.9133L46.8458 48.1844ZM48.2073 47.6897L48.4442 47.401L48.725 47.6413L48.489 47.9309L48.2073 47.6897ZM49.8648 47.501L50.0838 47.1964L50.3803 47.4177L50.1604 47.7227L49.8648 47.501ZM51.4624 47.2181L51.6648 46.9018L51.9716 47.1059L51.7683 47.4218L51.4624 47.2181ZM53.0398 46.8493L53.2279 46.523L53.5436 46.7122L53.3551 47.0389L53.0398 46.8493ZM54.6158 46.4026L54.7918 46.07L55.1147 46.2465L54.9396 46.5791L54.6158 46.4026ZM56.1869 45.9048L56.3567 45.5681L56.6832 45.7392L56.5125 46.0759L56.1869 45.9048ZM57.758 45.3821L57.9251 45.0445L58.252 45.2119L58.0841 45.5491L57.758 45.3821ZM59.3659 45.006L59.4322 44.8752L59.5571 44.9404L59.4917 45.0707L59.3659 45.006Z" fill="black"/>
</g>
</g>
</svg>
